<svg xmlns="http://www.w3.org/2000/svg" viewBox="0 0 1200 924" fill="#142d3d">
	<path d="M864.707 92.927l133.38-76.984 3.848 6.668-133.379 76.985z"/>
	<path d="M996.2 0h7.7v19.2h-7.7z"/>
	<path d="M998.107 22.59l3.85-6.669 133.365 77.015-3.851 6.669z"/>
	<path
		d="M862.8 98.5l70.5 40.7 66.7-38.5 66.7 38.5 70.5-40.7V17l-29.5-17h-15.4l37.2 21.5V94l-62.8 36.3-66.7-38.5-66.7 38.5L870.5 94V21.5L907.7 0h-15.4l-29.5 17zM864.706 323.931l133.38-76.984 3.849 6.669-133.38 76.984z"/>
	<path d="M1003.8 250.2h-7.6v-74.7l-64.8-37.4 3.9-6.7 68.5 39.6z"/>
	<path d="M998.113 253.591l3.851-6.668 133.364 77.016-3.85 6.668z"/>
	<path
		d="M1066.7 370.2l-66.7-38.5-66.7 38.5-70.5-40.7V248l66.7-38.5v-77l70.5-40.7 70.5 40.7v77l66.7 38.5v81.4l-70.5 40.8zM870.5 325l62.8 36.3 66.7-38.5 66.7 38.5 62.8-36.3v-72.6l-66.7-38.5v-77l-62.8-36.3-62.8 36.4v77l-66.7 38.5V325zM864.706 554.935l133.38-76.984 3.848 6.669-133.379 76.984z"/>
	<path d="M1003.8 481.2h-7.6v-74.7l-64.8-37.4 3.9-6.7 68.5 39.6z"/>
	<path d="M998.12 484.594l3.85-6.668 133.364 77.015-3.85 6.668z"/>
	<path
		d="M1066.7 601.2l-66.7-38.5-66.7 38.5-70.5-40.7V479l66.7-38.5v-77l70.5-40.7 70.5 40.7v77l66.7 38.5v81.4l-70.5 40.8zM870.5 556l62.8 36.3 66.7-38.5 66.7 38.5 62.8-36.3v-72.6l-66.7-38.5v-77l-62.8-36.3-62.8 36.4v77l-66.7 38.5V556zM864.705 785.94l133.38-76.985 3.849 6.67-133.38 76.984z"/>
	<path d="M1003.8 712.2h-7.6v-74.7l-64.8-37.4 3.9-6.7 68.5 39.6z"/>
	<path d="M998.125 715.596l3.851-6.668 133.364 77.015-3.85 6.668z"/>
	<path
		d="M1066.7 832.2l-66.7-38.5-66.7 38.5-70.5-40.7V710l66.7-38.5v-77l70.5-40.7 70.5 40.7v77l66.7 38.5v81.4l-70.5 40.8zM870.5 787l62.8 36.3 66.7-38.5 66.7 38.5 62.8-36.3v-72.6l-66.7-38.5v-77l-62.8-36.3-62.8 36.4v77l-66.7 38.5V787z"/>
	<path d="M935.3 824.4l-3.9 6.7 64.8 37.4V924h7.6v-60z"/>
	<path
		d="M1070.5 825.5l-70.5-40.7-70.5 40.7v77L892.3 924h15.4l29.5-17v-77l62.8-36.3 62.8 36.3v77l29.5 17h15.4l-37.2-21.5zM464.697 92.92l133.38-76.984 3.849 6.669-133.38 76.985z"/>
	<path d="M596.2 0h7.7v19.2h-7.7z"/>
	<path d="M598.103 22.6l3.85-6.668 133.365 77.015-3.851 6.668z"/>
	<path
		d="M462.8 98.5l70.5 40.7 66.7-38.5 66.7 38.5 70.5-40.7V17L707.7 0h-15.4l37.2 21.5V94l-62.8 36.3L600 91.8l-66.7 38.5L470.5 94V21.5L507.7 0h-15.4l-29.5 17zM464.699 323.924l133.38-76.985 3.848 6.669-133.379 76.984z"/>
	<path d="M603.8 250.2h-7.6v-74.7l-64.8-37.4 3.9-6.7 68.5 39.6z"/>
	<path d="M598.11 253.602l3.85-6.668 133.364 77.015-3.85 6.668z"/>
	<path
		d="M666.7 370.2L600 331.7l-66.7 38.5-70.5-40.7V248l66.7-38.5v-77L600 91.8l70.5 40.7v77l66.7 38.5v81.4l-70.5 40.8zM600 322.8l66.7 38.5 62.8-36.3v-72.6L662.8 214v-77L600 100.7 537.2 137v77l-66.7 38.5V325l62.8 36.3 66.7-38.5zM464.7 554.926l133.38-76.984 3.85 6.669-133.38 76.984z"/>
	<path d="M603.8 481.2h-7.6v-74.7l-64.8-37.4 3.9-6.7 68.5 39.6z"/>
	<path d="M598.115 484.604l3.851-6.668 133.364 77.015-3.85 6.669z"/>
	<path
		d="M666.7 601.2L600 562.7l-66.7 38.5-70.5-40.7V479l66.7-38.5v-77l70.5-40.7 70.5 40.7v77l66.7 38.5v81.4l-70.5 40.8zM600 553.8l66.7 38.5 62.8-36.3v-72.6L662.8 445v-77L600 331.7 537.2 368v77l-66.7 38.5V556l62.8 36.3 66.7-38.5zM464.702 785.93l133.38-76.985 3.849 6.669-133.38 76.984z"/>
	<path d="M603.8 712.2h-7.6v-74.7l-64.8-37.4 3.9-6.7 68.5 39.6z"/>
	<path d="M598.121 715.607l3.851-6.669 133.364 77.016-3.85 6.668z"/>
	<path
		d="M666.7 832.2L600 793.7l-66.7 38.5-70.5-40.7V710l66.7-38.5v-77l70.5-40.7 70.5 40.7v77l66.7 38.5v81.4l-70.5 40.8zM600 784.8l66.7 38.5 62.8-36.3v-72.6L662.8 676v-77L600 562.7 537.2 599v77l-66.7 38.5V787l62.8 36.3 66.7-38.5z"/>
	<path d="M535.3 824.4l-3.9 6.7 64.8 37.4V924h7.6v-60z"/>
	<path
		d="M670.5 825.5L600 784.8l-70.5 40.7v77L492.3 924h15.4l29.5-17v-77l62.8-36.3 62.8 36.3v77l29.5 17h15.4l-37.2-21.5zM64.692 92.925l133.38-76.984 3.849 6.668L68.54 99.594z"/>
	<path d="M196.2 0h7.7v19.2h-7.7z"/>
	<path d="M198.1 22.61l3.85-6.668 133.364 77.016-3.85 6.668z"/>

	<path
		d="M62.8 98.5l70.5 40.7 66.7-38.5 66.7 38.5 70.5-40.7V17L307.7 0h-15.4l37.2 21.5V94l-62.8 36.3L200 91.8l-66.7 38.5L70.5 94V21.5L107.7 0H92.3L62.8 17z"/>


	<path d="M64.692 323.93l133.38-76.985 3.848 6.669-133.379 76.984z"/>
	<path d="M203.8 250.2h-7.6v-74.7l-64.8-37.4 3.9-6.7 68.5 39.6z"/>
	<path d="M198.105 253.613l3.851-6.668L335.32 323.96l-3.85 6.669z"/>

	<path
		d="M266.7 370.2L200 331.7l-66.7 38.5-70.5-40.7V248l66.7-38.5v-77L200 91.8l70.5 40.7v77l66.7 38.5v81.4l-70.5 40.8zM200 322.8l66.7 38.5 62.8-36.3v-72.6L262.8 214v-77L200 100.7 137.2 137v77l-66.7 38.5V325l62.8 36.3 66.7-38.5z"/>


	<path d="M64.691 554.934l133.38-76.985 3.849 6.669-133.38 76.984z"/>
	<path d="M203.8 481.2h-7.6v-74.7l-64.8-37.4 3.9-6.7 68.5 39.6z"/>
	<path d="M198.111 484.616l3.851-6.669 133.364 77.016-3.85 6.668z"/>

	<path
		d="M266.7 601.2L200 562.7l-66.7 38.5-70.5-40.7V479l66.7-38.5v-77l70.5-40.7 70.5 40.7v77l66.7 38.5v81.4l-70.5 40.8zM200 553.8l66.7 38.5 62.8-36.3v-72.6L262.8 445v-77L200 331.7 137.2 368v77l-66.7 38.5V556l62.8 36.3 66.7-38.5z"/>


	<path d="M64.69 785.938l133.38-76.985 3.85 6.67-133.38 76.984z"/>
	<path d="M203.8 712.2h-7.6v-74.7l-64.8-37.4 3.9-6.7 68.5 39.6z"/>
	<path d="M198.117 715.618l3.851-6.668 133.364 77.015-3.85 6.668z"/>

	<path
		d="M266.7 832.2L200 793.7l-66.7 38.5-70.5-40.7V710l66.7-38.5v-77l70.5-40.7 70.5 40.7v77l66.7 38.5v81.4l-70.5 40.8zM200 784.8l66.7 38.5 62.8-36.3v-72.6L262.8 676v-77L200 562.7 137.2 599v77l-66.7 38.5V787l62.8 36.3 66.7-38.5z"/>


	<path d="M135.3 824.4l-3.9 6.7 64.8 37.4V924h7.6v-60z"/>
	<path
		d="M270.5 825.5L200 784.8l-70.5 40.7v77L92.3 924h15.4l29.5-17v-77l62.8-36.3 62.8 36.3v77l29.5 17h15.4l-37.2-21.5z"/>


	<path d="M107.7 0H92.3L66.7 14.8 41 0H25.6l41.1 23.7z"/>


	<path d="M135.3 208.4l-133.4-77-1.9 3.4v4.4l131.4 75.9z"/>
	<path d="M3.8 60l64.8-37.4-3.9-6.7L0 53.3v81.5h3.8z"/>
	<path d="M0 134.7v4.5l1.9-1.1z"/>

	<path d="M66.7 254.7l70.5-40.7v-81.5L70.5 94V17L41 0H25.6l37.2 21.5v77l66.7 38.5v72.5l-62.8 36.3L0 207.3v8.9z"/>


	<path d="M135.3 439.4l-133.4-77-1.9 3.4v4.4l131.4 75.9z"/>
	<path d="M3.8 291l64.8-37.4-3.9-6.7L0 284.3v81.5h3.8z"/>
	<path d="M0 365.7v4.5l1.9-1.1z"/>

	<path d="M66.7 485.7l70.5-40.7v-81.5L70.5 325v-77L0 207.3v8.9l62.8 36.3v77l66.7 38.5v72.5l-62.8 36.3L0 438.3v8.9z"/>


	<path d="M135.3 670.4l-133.4-77-1.9 3.4v4.4l131.4 75.9z"/>
	<path d="M3.8 522l64.8-37.4-3.9-6.7L0 515.3v81.5h3.8z"/>
	<path d="M0 596.7v4.5l1.9-1.1z"/>

	<path d="M66.7 716.7l70.5-40.7v-81.5L70.5 556v-77L0 438.3v8.9l62.8 36.3v77l66.7 38.5v72.5l-62.8 36.3L0 669.3v8.9z"/>


	<path d="M135.3 901.4l-133.4-77-1.9 3.4v4.4l131.4 75.9z"/>
	<path d="M3.8 753l64.8-37.4-3.9-6.7L0 746.3v81.5h3.8z"/>
	<path d="M0 827.7v4.5l1.9-1.1z"/>

	<path
		d="M137.2 825.5L70.5 787v-77L0 669.3v8.9l62.8 36.3v77l66.7 38.5v72.5L92.3 924h15.4l29.5-17zM0 900.3v8.9L25.6 924H41z"/>


	<path d="M0 900.3v8.9L25.6 924H41L0 900.3z"/>


	<path d="M374.4 0H359l-25.7 14.8L307.7 0h-15.4l41 23.7zM466.7 14.8L441 0h-15.4l41.1 23.7 41-23.7h-15.4z"/>


	<path d="M398.104 138.106l3.85-6.668 133.365 77.015-3.85 6.669z"/>
	<path d="M403.8 134.8h-7.6V55.5l68.5-39.6 3.9 6.7L403.8 60z"/>
	<path d="M264.696 208.428l133.379-76.985 3.85 6.669-133.38 76.985z"/>

	<path
		d="M329.5 94l-66.7 38.5V214l70.5 40.7 66.7-38.5 66.7 38.5 70.5-40.7v-81.5L470.5 94V17L441 0h-15.4l37.2 21.5v77l66.7 38.5v72.5l-62.8 36.3-66.7-38.5-66.7 38.5-62.8-36.3V137l66.7-38.5v-77L374.4 0H359l-29.5 17z"/>


	<path d="M398.11 369.109l3.85-6.669 133.365 77.016-3.85 6.668z"/>
	<path d="M403.8 365.8h-7.6v-79.3l68.5-39.6 3.9 6.7-64.8 37.4z"/>
	<path d="M264.695 439.432l133.38-76.985 3.849 6.67-133.38 76.984z"/>

	<path
		d="M466.7 485.7L400 447.2l-66.7 38.5-70.5-40.7v-81.4l66.7-38.5v-77l70.5-40.7 70.5 40.7v77l66.7 38.5V445l-70.5 40.7zM400 438.3l66.7 38.5 62.8-36.3V368l-66.7-38.5v-77L400 216.2l-62.8 36.3v77L270.5 368v72.6l62.8 36.3 66.7-38.6z"/>


	<path d="M398.116 600.11l3.851-6.667 133.364 77.015-3.85 6.668z"/>
	<path d="M403.8 596.8h-7.6v-79.3l68.5-39.6 3.9 6.7-64.8 37.4z"/>
	<path d="M264.695 670.436l133.379-76.984 3.85 6.669-133.38 76.984z"/>

	<path
		d="M466.7 716.7L400 678.2l-66.7 38.5-70.5-40.7v-81.4l66.7-38.5v-77l70.5-40.7 70.5 40.7v77l66.7 38.5V676l-70.5 40.7zM400 669.3l66.7 38.5 62.8-36.3V599l-66.7-38.5v-77L400 447.2l-62.8 36.3v77L270.5 599v72.6l62.8 36.3 66.7-38.6z"/>


	<path d="M398.122 831.113l3.851-6.668 133.364 77.015-3.85 6.668z"/>
	<path d="M403.8 827.8h-7.6v-79.3l68.5-39.6 3.9 6.7-64.8 37.4z"/>
	<path d="M264.694 901.44l133.38-76.984 3.849 6.669-133.38 76.984z"/>

	<path d="M400 900.3L359 924h15.4l25.6-14.8 25.6 14.8H441z"/>
	<path
		d="M537.2 825.5L470.5 787v-77L400 669.3 329.5 710v77l-66.7 38.5V907l29.5 17h15.4l-37.2-21.5V830l66.7-38.5v-77l62.8-36.3 62.8 36.3v77l66.7 38.5v72.5L492.3 924h15.4l29.5-17z"/>


	<path d="M359 924h15.4l25.6-14.8 25.6 14.8H441l-41-23.7z"/>


	<path d="M866.7 14.8L841 0h-15.4l41.1 23.7 41-23.7h-15.4zM774.4 0H759l-25.7 14.8L707.7 0h-15.4l41 23.7z"/>


	<path d="M798.108 138.095l3.85-6.668 133.365 77.016-3.851 6.668z"/>
	<path d="M803.8 134.8h-7.6V55.5l68.5-39.6 3.9 6.7L803.8 60z"/>
	<path d="M664.703 208.429l133.38-76.985 3.849 6.669-133.38 76.985z"/>

	<path
		d="M729.5 94l-66.7 38.5V214l70.5 40.7 66.7-38.5 66.7 38.5 70.5-40.7v-81.5L870.5 94V17L841 0h-15.4l37.2 21.5v77l66.7 38.5v72.5l-62.8 36.3-66.7-38.5-66.7 38.5-62.8-36.3V137l66.7-38.5v-77L774.4 0H759l-29.5 17z"/>


	<path d="M798.114 369.098l3.85-6.669 133.365 77.016-3.85 6.668z"/>
	<path d="M803.8 365.8h-7.6v-79.3l68.5-39.6 3.9 6.7-64.8 37.4z"/>
	<path d="M664.702 439.433l133.38-76.985 3.849 6.67-133.38 76.984z"/>

	<path
		d="M866.7 485.7L800 447.2l-66.7 38.5-70.5-40.7v-81.4l66.7-38.5v-77l70.5-40.7 70.5 40.7v77l66.7 38.5V445l-70.5 40.7zM800 438.3l66.7 38.5 62.8-36.3V368l-66.7-38.5v-77L800 216.2l-62.8 36.3v77L670.5 368v72.6l62.8 36.3 66.7-38.6z"/>


	<path d="M798.12 600.1l3.851-6.668 133.364 77.015-3.85 6.668z"/>
	<path d="M803.8 596.8h-7.6v-79.3l68.5-39.6 3.9 6.7-64.8 37.4z"/>
	<path d="M664.702 670.437l133.38-76.985 3.849 6.67-133.38 76.984z"/>

	<path
		d="M866.7 716.7L800 678.2l-66.7 38.5-70.5-40.7v-81.4l66.7-38.5v-77l70.5-40.7 70.5 40.7v77l66.7 38.5V676l-70.5 40.7zM800 669.3l66.7 38.5 62.8-36.3V599l-66.7-38.5v-77L800 447.2l-62.8 36.3v77L670.5 599v72.6l62.8 36.3 66.7-38.6z"/>


	<path d="M798.126 831.102l3.851-6.668 133.364 77.015-3.85 6.669z"/>
	<path d="M803.8 827.8h-7.6v-79.3l68.5-39.6 3.9 6.7-64.8 37.4z"/>
	<path d="M664.701 901.441l133.38-76.984 3.849 6.669-133.38 76.984z"/>

	<path d="M800 900.3L759 924h15.4l25.6-14.8 25.6 14.8H841z"/>
	<path
		d="M937.2 825.5L870.5 787v-77L800 669.3 729.5 710v77l-66.7 38.5V907l29.5 17h15.4l-37.2-21.5V830l66.7-38.5v-77l62.8-36.3 62.8 36.3v77l66.7 38.5v72.5L892.3 924h15.4l29.5-17z"/>


	<path d="M759 924h15.4l25.6-14.8 25.6 14.8H841l-41-23.7z"/>


	<path d="M1133.3 14.8L1107.7 0h-15.4l41 23.7L1174.4 0H1159z"/>


	<path d="M1198.1 138.1l1.9 1.1v-4.5z"/>
	<path d="M1196.2 55.5v79.3h3.8V53.3z"/>
	<path d="M1064.7 208.4l3.9 6.7 131.4-75.9v-4.4l-1.9-3.4z"/>

	<path
		d="M1200 207.3l-66.7 38.5-62.8-36.3V137l66.7-38.5v-77L1174.4 0H1159l-29.5 17v77l-66.7 38.5V214l70.5 40.7 66.7-38.5v-8.9z"/>


	<path d="M1198.1 369.1l1.9 1.1v-4.5z"/>
	<path d="M1196.2 286.5v79.3h3.8v-81.5z"/>
	<path d="M1064.7 439.4l3.9 6.7 131.4-75.9v-4.4l-1.9-3.4z"/>

	<path
		d="M1200 438.3l-66.7 38.5-62.8-36.3V368l66.7-38.5v-77l62.8-36.3v-8.9l-70.5 40.7v77l-66.7 38.5V445l70.5 40.7 66.7-38.5v-8.9z"/>


	<path d="M1198.1 600.1l1.9 1.1v-4.5z"/>
	<path d="M1196.2 517.5v79.3h3.8v-81.5z"/>
	<path d="M1064.7 670.4l3.9 6.7 131.4-75.9v-4.4l-1.9-3.4z"/>

	<path
		d="M1200 669.3l-66.7 38.5-62.8-36.3V599l66.7-38.5v-77l62.8-36.3v-8.9l-70.5 40.7v77l-66.7 38.5V676l70.5 40.7 66.7-38.5v-8.9z"/>


	<path d="M1198.1 831.1l1.9 1.1v-4.5z"/>
	<path d="M1196.2 748.5v79.3h3.8v-81.5z"/>
	<path d="M1064.7 901.4l3.9 6.7 131.4-75.9v-4.4l-1.9-3.4z"/>

	<path
		d="M1200 900.3l-41 23.7h15.4l25.6-14.8v-8.9zM1070.5 902.5V830l66.7-38.5v-77l62.8-36.3v-8.9l-70.5 40.7v77l-66.7 38.5V907l29.5 17h15.4z"/>


	<path d="M1200 909.2v-8.9l-41 23.7h15.4z"/>

</svg>
