<svg xmlns="http://www.w3.org/2000/svg" viewBox="0 0 1024 229">
	<path d="M988.3 77c-18.4 0-30.9 8.6-30.9 21.4 0 12.9 13 18 24.4 22.7 8.8 3.6 18.1 7.4 18.1 13.5 0 1.9-.6 3.3-1.6 4.4-2.1 2.5-6.5 3.7-13.3 3.3a63.2 63.2 0 0 1-22.8-6.5l-3.5-1.6V150l2.2.6 1.4.3c4.2 1 12.4 2.9 20.6 2.9 21.4 0 34.2-8.5 34.2-22.7 0-13.2-13.2-18.5-24.9-23.1-8.6-3.4-17.4-6.9-17.4-12.5 0-1.6-.1-6.5 10.9-6.5 8.2 0 16.4 3.3 20.8 5.1l4.1 1.7v-16l-4.1-.8c-4.1-.8-11-2-18.2-2zm-723.4 2.5v.8a666.4 666.4 0 0 1-.1 71.5v.8h33.9c16.6 0 34.2-5.2 34.2-20 0-9.3-6.6-16.2-19.2-20 9.2-2.4 15.5-8.8 15.5-16.2 0-12-13.9-16.7-26.9-17l-37.4.1zm82.2 0v.8a658.7 658.7 0 0 1-.1 71.4v.8h17v-.6c-1-17.9-1-35.9-1-53.2.6 2 1.5 4 4.1 7.9l31.1 45.6v.3H412l-.2-.8c-1-9.4-1-31.1-1-37.5 0-7.1.4-26.2 1-33.9v-.8h-17.1l.8 18.4c.3 9.2.5 18.5 1.1 27.6-1.1-2.8-2-4.3-7-11.6-.1-.3-17.2-26.8-23.1-34.2l-.2-.2h-19.2zm83.8 0l.2.6a666.4 666.4 0 0 1-.1 71.6l-.2.8h20.4l-.2-.8c-.7-6.7-.9-19.4-1-29.3l3.6.2 2.9.2c26.8 0 39.8-7.2 39.8-22 0-16.9-18.2-20.9-33.4-21.2l-32-.1zm104.3 0v.6a520.5 520.5 0 0 1-.2 71.6v.8h20.3v-.8c-.7-6.7-1-19.4-1.1-29.3l3.8.2 2.9.2c26.8 0 39.8-7.2 39.8-22 0-16.9-18.3-20.9-33.6-21.2l-31.9-.1zm92.4 0l-.2.5c-3.7 10.4-28 63.5-31.8 71.6l-.5 1h17.4l.2-.3c1.5-5 3.4-10.7 5.7-16.8l14.4-.3 11.9.2 2.5.2c3.2 7.9 5.5 13.9 6.5 16.8l.2.3H674l-32.5-73H627.6v-.2zm54.5 0v.8c.6 7.7 1 26.8 1 33.9 0 6.4 0 28.2-1.1 37.5v.8h20.3v-.8a513 513 0 0 1-.5-63c1.6-.2 3.9-.3 5.4-.3 9.5-.2 16.3 1.8 19.5 5.7 1.5 1.8 2.2 4.1 2.2 6.7 0 8.4-8 12.6-15.4 13-2.4.1-4.3-.2-4.3-.2l-1.4-.3 1 1.4a522.6 522.6 0 0 1 22.5 37.5l.2.3H753l-.6-1.1-21.1-31.1-.3-.5c11-3.4 16.5-9.6 16.5-19.2 0-16.9-18.3-20.9-33.6-21.2l-31.8.1zm80.5 0v.6a666.4 666.4 0 0 1-.1 71.6v.8h20.3l-.2-.8c-1-9.4-1-31.1-1-37.5 0-7.1.4-26.4 1-34.1v-.6h-20zm38.3 0v.8c.6 7.7 1 27 1 34.1 0 6.5.1 28-1 37.4l-.2.8h34.1c16.5 0 34.2-5.2 34.2-20 0-9.3-6.7-16.2-19.3-20 9.3-2.4 15.5-8.8 15.5-16.2 0-12-13.9-16.7-26.9-17l-37.4.1zm104.4 0l-.2.3c-4 11-29.7 67.2-31.8 71.8l-.5 1h17.4l.2-.5a281 281 0 0 1 5.7-16.8l14.4-.2 11.9.2h2.5c3.2 7.9 5.5 13.8 6.5 16.8l.2.5h20.1l-32.5-73h-13.9v-.1zm-617.9 8.2h3.8c14.1.1 19.3 2.9 19.3 10.6 0 2.1-.5 3.9-1.7 5.4-2.7 3.2-8.2 4.9-14.9 4.6h-.3l-4 10.3h4c7.8-.2 14.6 2.2 18.1 6.5 1.6 2 2.4 4.2 2.4 6.7 0 8.1-7.1 12.2-21.1 12.2-2.3 0-6.1 0-8.6-.2-.5-10.7-.5-25.2-.5-29.5 0-5.1.2-16.4.5-26.1l3-.5zm536.1 0h3.6c14.2.1 19.5 2.9 19.5 10.6a8 8 0 0 1-1.9 5.4c-2.7 3.2-8.2 4.9-14.9 4.6h-.3l-4 10.3h4.1c7.8-.2 14.4 2.2 17.9 6.5 1.6 2 2.5 4.2 2.5 6.7 0 8.1-7.1 12.2-21.1 12.2-2.4 0-6.1 0-8.6-.2a764.1 764.1 0 0 1 0-55.6l3.2-.5zm-367.5.7c9.5-.2 16.1 1.7 19.3 5.7 1.5 1.8 2.2 4.1 2.2 6.7 0 10.6-11.8 12.8-21.7 12.8l-4.1-.2-1.6-.3v-9.2c0-4.7 0-10 .2-15.1 1.2-.2 3.5-.4 5.7-.4zm104.1 0c9.5-.2 16.3 1.7 19.5 5.7 1.5 1.8 2.2 4.1 2.2 6.7 0 10.6-11.8 12.8-21.7 12.8l-4.1-.2-1.6-.3a221.8 221.8 0 0 1 .1-24.3c1.3-.2 3.4-.4 5.6-.4zm72.7 12.6a656 656 0 0 1 10.6 24.7h-1.6l-9 .2-10.6-.2c3.8-9.2 7.4-17.6 10.6-24.7zm277.7 0a656 656 0 0 1 10.6 24.7h-1.6l-9 .2-10.6-.2c3.8-9.2 7.4-17.6 10.6-24.7zM6.8 6.5v216h216V6.5H6.8zm50.8 183.7a55.3 55.3 0 0 1-12.5-17.7 142 142 0 0 1-16.8-9.2c4-1.8 7.6-3 12.5-4.3a90.1 90.1 0 0 1 .2-27.4 85.2 85.2 0 0 0 8.5 25.4c5.4-1.1 10-1.8 16.2-2.7a56.4 56.4 0 0 0-7.3 13.9c6.1 5.7 11.6 9 19.3 11.9-8.1-.3-14-1.4-21.2-3.5-.5 5-.2 8.8 1.1 13.6zm21.8-66.8c-3.2-7.5-7.6-22.8-7.6-22.8A238.8 238.8 0 0 0 43 124c11-22.1 22.2-32.2 22.2-32.2-3.8-3.8-13.8-5.7-21.2-6a79.3 79.3 0 0 1 33.2-3.5c6.8-5.4 17-10 20.6-10.5-2.5 3-5.3 8.8-6 11.8a99.5 99.5 0 0 1 35.6 12.8 113.2 113.2 0 0 0-32.8-2.1c-6.5.6-7.8 1.4-7.8 1.4-4.6 10.1-7.4 27.7-7.4 27.7zm42.1 62.5c-2.4.5-5.8.6-9.2.5a84.9 84.9 0 0 1-22.2 8.4 75 75 0 0 0 11.7-9c-4.1-.8-8.1-2.1-12-4.1 6.5 0 11.7-.7 18.4-2.5 4-4.4 7-8 10.5-12.7.1 3.3.3 5.8.6 8.7 6.3-3 11-6 16.5-9.8-5.2 5.2-9.6 9.6-15.9 14.3l1.6 6.2zm67.6-131.4c2.3 5.9-3 38.5-7.4 47.2-.2-13.6-1.5-30.8-6.5-38.3-13.3 7.8-17.4 8.4-31.8 17.1 8.5-9.2 11.3-13.1 16.5-20.8-13.3.7-32.8 2.3-46.7 5.4A189.9 189.9 0 0 1 162 49.9c-2.9-4.1-26.7-17.1-32.6-19.5 18.8 1.5 41.8 8.5 52.7 15.4 4.4-1.3 9-1.5 17.1-2.2-2.1 3.5-2.1 5.6-10.1 10.9z" fill="#fff"/>
</svg>
