<?xml version="1.0" encoding="utf-8"?>
<!-- Generator: Adobe Illustrator 21.0.0, SVG Export Plug-In . SVG Version: 6.00 Build 0)  -->
<svg version="1.1" id="_x2014_ÎÓÈ_x5F_1" xmlns="http://www.w3.org/2000/svg" xmlns:xlink="http://www.w3.org/1999/xlink"
	 x="0px" y="0px" viewBox="0 0 1200 924" style="enable-background:new 0 0 1200 924;" xml:space="preserve">
<g>
	<g>
		<g>
			<g>
				
					<rect x="856.3" y="53.9" transform="matrix(0.8661 -0.4999 0.4999 0.8661 96.1208 474.3087)" style="fill:#FFFFFF;" width="154" height="7.7"/>
			</g>
			<g>
				<rect x="996.2" style="fill:#FFFFFF;" width="7.7" height="19.2"/>
			</g>
			<g>
				
					<rect x="1062.8" y="-19.2" transform="matrix(0.5001 -0.866 0.866 0.5001 483.2279 952.5759)" style="fill:#FFFFFF;" width="7.7" height="154"/>
			</g>
		</g>
		<g>
			<polygon style="fill:#FFFFFF;" points="862.8,98.5 933.3,139.2 1000,100.7 1066.7,139.2 1137.2,98.5 1137.2,17 1107.7,0 
				1092.3,0 1129.5,21.5 1129.5,94 1066.7,130.3 1000,91.8 933.3,130.3 870.5,94 870.5,21.5 907.7,0 892.3,0 862.8,17 			"/>
		</g>
	</g>
	<g>
		<g>
			<g>
				
					<rect x="856.3" y="284.9" transform="matrix(0.8661 -0.4999 0.4999 0.8661 -19.3566 505.2437)" style="fill:#FFFFFF;" width="154" height="7.7"/>
			</g>
			<g>
				<polygon style="fill:#FFFFFF;" points="1003.8,250.2 996.2,250.2 996.2,175.5 931.4,138.1 935.3,131.4 1003.8,171 				"/>
			</g>
			<g>
				
					<rect x="1062.8" y="211.8" transform="matrix(0.5001 -0.866 0.866 0.5001 283.1881 1068.0551)" style="fill:#FFFFFF;" width="7.7" height="154"/>
			</g>
		</g>
		<g>
			<path style="fill:#FFFFFF;" d="M1066.7,370.2l-66.7-38.5l-66.7,38.5l-70.5-40.7V248l66.7-38.5v-77l70.5-40.7l70.5,40.7v77
				l66.7,38.5v81.4L1066.7,370.2z M870.5,325l62.8,36.3l66.7-38.5l66.7,38.5l62.8-36.3v-72.6l-66.7-38.5v-77l-62.8-36.3L937.2,137
				v77l-66.7,38.5V325z"/>
		</g>
	</g>
	<g>
		<g>
			<g>
				
					<rect x="856.3" y="515.9" transform="matrix(0.8661 -0.4999 0.4999 0.8661 -134.8341 536.1788)" style="fill:#FFFFFF;" width="154" height="7.7"/>
			</g>
			<g>
				<polygon style="fill:#FFFFFF;" points="1003.8,481.2 996.2,481.2 996.2,406.5 931.4,369.1 935.3,362.4 1003.8,402 				"/>
			</g>
			<g>
				
					<rect x="1062.8" y="442.8" transform="matrix(0.5001 -0.866 0.866 0.5001 83.1482 1183.5343)" style="fill:#FFFFFF;" width="7.7" height="154"/>
			</g>
		</g>
		<g>
			<path style="fill:#FFFFFF;" d="M1066.7,601.2l-66.7-38.5l-66.7,38.5l-70.5-40.7V479l66.7-38.5v-77l70.5-40.7l70.5,40.7v77
				l66.7,38.5v81.4L1066.7,601.2z M870.5,556l62.8,36.3l66.7-38.5l66.7,38.5l62.8-36.3v-72.6l-66.7-38.5v-77l-62.8-36.3L937.2,368
				v77l-66.7,38.5V556z"/>
		</g>
	</g>
	<g>
		<g>
			<g>
				
					<rect x="856.3" y="746.9" transform="matrix(0.8661 -0.4999 0.4999 0.8661 -250.3115 567.114)" style="fill:#FFFFFF;" width="154" height="7.7"/>
			</g>
			<g>
				<polygon style="fill:#FFFFFF;" points="1003.8,712.2 996.2,712.2 996.2,637.5 931.4,600.1 935.3,593.4 1003.8,633 				"/>
			</g>
			<g>
				
					<rect x="1062.8" y="673.8" transform="matrix(0.5001 -0.866 0.866 0.5001 -116.8916 1299.0134)" style="fill:#FFFFFF;" width="7.7" height="154"/>
			</g>
		</g>
		<g>
			<path style="fill:#FFFFFF;" d="M1066.7,832.2l-66.7-38.5l-66.7,38.5l-70.5-40.7V710l66.7-38.5v-77l70.5-40.7l70.5,40.7v77
				l66.7,38.5v81.4L1066.7,832.2z M870.5,787l62.8,36.3l66.7-38.5l66.7,38.5l62.8-36.3v-72.6l-66.7-38.5v-77l-62.8-36.3L937.2,599
				v77l-66.7,38.5V787z"/>
		</g>
	</g>
	<g>
		<g>
			<g>
				<polygon style="fill:#FFFFFF;" points="935.3,824.4 931.4,831.1 996.2,868.5 996.2,924 1003.8,924 1003.8,864 				"/>
			</g>
		</g>
		<g>
			<polygon style="fill:#FFFFFF;" points="1070.5,825.5 1000,784.8 929.5,825.5 929.5,902.5 892.3,924 907.7,924 937.2,907 
				937.2,830 1000,793.7 1062.8,830 1062.8,907 1092.3,924 1107.7,924 1070.5,902.5 			"/>
		</g>
	</g>
	<g>
		<g>
			<g>
				
					<rect x="456.3" y="53.9" transform="matrix(0.8661 -0.4999 0.4999 0.8661 42.5511 274.3422)" style="fill:#FFFFFF;" width="154" height="7.7"/>
			</g>
			<g>
				<rect x="596.2" style="fill:#FFFFFF;" width="7.7" height="19.2"/>
			</g>
			<g>
				
					<rect x="662.8" y="-19.2" transform="matrix(0.5001 -0.866 0.866 0.5001 283.2639 606.1865)" style="fill:#FFFFFF;" width="7.7" height="154"/>
			</g>
		</g>
		<g>
			<polygon style="fill:#FFFFFF;" points="462.8,98.5 533.3,139.2 600,100.7 666.7,139.2 737.2,98.5 737.2,17 707.7,0 692.3,0 
				729.5,21.5 729.5,94 666.7,130.3 600,91.8 533.3,130.3 470.5,94 470.5,21.5 507.7,0 492.3,0 462.8,17 			"/>
		</g>
	</g>
	<g>
		<g>
			<g>
				
					<rect x="456.3" y="284.9" transform="matrix(0.8661 -0.4999 0.4999 0.8661 -72.9241 305.276)" style="fill:#FFFFFF;" width="154" height="7.7"/>
			</g>
			<g>
				<polygon style="fill:#FFFFFF;" points="603.8,250.2 596.2,250.2 596.2,175.5 531.4,138.1 535.3,131.4 603.8,171 				"/>
			</g>
			<g>
				
					<rect x="662.8" y="211.8" transform="matrix(0.5001 -0.866 0.866 0.5001 83.2241 721.6656)" style="fill:#FFFFFF;" width="7.7" height="154"/>
			</g>
		</g>
		<g>
			<path style="fill:#FFFFFF;" d="M666.7,370.2L600,331.7l-66.7,38.5l-70.5-40.7V248l66.7-38.5v-77L600,91.8l70.5,40.7v77l66.7,38.5
				v81.4L666.7,370.2z M600,322.8l66.7,38.5l62.8-36.3v-72.6L662.8,214v-77L600,100.7L537.2,137v77l-66.7,38.5V325l62.8,36.3
				L600,322.8z"/>
		</g>
	</g>
	<g>
		<g>
			<g>
				
					<rect x="456.3" y="515.9" transform="matrix(0.8661 -0.4999 0.4999 0.8661 -188.3993 336.2098)" style="fill:#FFFFFF;" width="154" height="7.7"/>
			</g>
			<g>
				<polygon style="fill:#FFFFFF;" points="603.8,481.2 596.2,481.2 596.2,406.5 531.4,369.1 535.3,362.4 603.8,402 				"/>
			</g>
			<g>
				
					<rect x="662.8" y="442.8" transform="matrix(0.5001 -0.866 0.866 0.5001 -116.8158 837.1448)" style="fill:#FFFFFF;" width="7.7" height="154"/>
			</g>
		</g>
		<g>
			<path style="fill:#FFFFFF;" d="M666.7,601.2L600,562.7l-66.7,38.5l-70.5-40.7V479l66.7-38.5v-77l70.5-40.7l70.5,40.7v77
				l66.7,38.5v81.4L666.7,601.2z M600,553.8l66.7,38.5l62.8-36.3v-72.6L662.8,445v-77L600,331.7L537.2,368v77l-66.7,38.5V556
				l62.8,36.3L600,553.8z"/>
		</g>
	</g>
	<g>
		<g>
			<g>
				
					<rect x="456.3" y="746.9" transform="matrix(0.8661 -0.4999 0.4999 0.8661 -303.8745 367.1436)" style="fill:#FFFFFF;" width="154" height="7.7"/>
			</g>
			<g>
				<polygon style="fill:#FFFFFF;" points="603.8,712.2 596.2,712.2 596.2,637.5 531.4,600.1 535.3,593.4 603.8,633 				"/>
			</g>
			<g>
				
					<rect x="662.8" y="673.8" transform="matrix(0.5001 -0.866 0.866 0.5001 -316.8557 952.624)" style="fill:#FFFFFF;" width="7.7" height="154"/>
			</g>
		</g>
		<g>
			<path style="fill:#FFFFFF;" d="M666.7,832.2L600,793.7l-66.7,38.5l-70.5-40.7V710l66.7-38.5v-77l70.5-40.7l70.5,40.7v77
				l66.7,38.5v81.4L666.7,832.2z M600,784.8l66.7,38.5l62.8-36.3v-72.6L662.8,676v-77L600,562.7L537.2,599v77l-66.7,38.5V787
				l62.8,36.3L600,784.8z"/>
		</g>
	</g>
	<g>
		<g>
			<g>
				<polygon style="fill:#FFFFFF;" points="535.3,824.4 531.4,831.1 596.2,868.5 596.2,924 603.8,924 603.8,864 				"/>
			</g>
		</g>
		<g>
			<polygon style="fill:#FFFFFF;" points="670.5,825.5 600,784.8 529.5,825.5 529.5,902.5 492.3,924 507.7,924 537.2,907 537.2,830 
				600,793.7 662.8,830 662.8,907 692.3,924 707.7,924 670.5,902.5 			"/>
		</g>
	</g>
	<g>
		<g>
			<g>
				
					<rect x="56.3" y="53.9" transform="matrix(0.8661 -0.4999 0.4999 0.8661 -11.0138 74.3867)" style="fill:#FFFFFF;" width="154" height="7.7"/>
			</g>
			<g>
				<rect x="196.2" style="fill:#FFFFFF;" width="7.7" height="19.2"/>
			</g>
			<g>
				
					<rect x="262.8" y="-19.2" transform="matrix(0.5001 -0.866 0.866 0.5001 83.3002 259.7974)" style="fill:#FFFFFF;" width="7.7" height="154"/>
			</g>
		</g>
		<g>
			<polygon style="fill:#FFFFFF;" points="62.8,98.5 133.3,139.2 200,100.7 266.7,139.2 337.2,98.5 337.2,17 307.7,0 292.3,0 
				329.5,21.5 329.5,94 266.7,130.3 200,91.8 133.3,130.3 70.5,94 70.5,21.5 107.7,0 92.3,0 62.8,17 			"/>
		</g>
	</g>
	<g>
		<g>
			<g>
				
					<rect x="56.3" y="284.9" transform="matrix(0.8661 -0.4999 0.4999 0.8661 -126.4912 105.3218)" style="fill:#FFFFFF;" width="154" height="7.7"/>
			</g>
			<g>
				<polygon style="fill:#FFFFFF;" points="203.8,250.2 196.2,250.2 196.2,175.5 131.4,138.1 135.3,131.4 203.8,171 				"/>
			</g>
			<g>
				
					<rect x="262.8" y="211.8" transform="matrix(0.5001 -0.866 0.866 0.5001 -116.7398 375.2768)" style="fill:#FFFFFF;" width="7.7" height="154"/>
			</g>
		</g>
		<g>
			<path style="fill:#FFFFFF;" d="M266.7,370.2L200,331.7l-66.7,38.5l-70.5-40.7V248l66.7-38.5v-77L200,91.8l70.5,40.7v77l66.7,38.5
				v81.4L266.7,370.2z M200,322.8l66.7,38.5l62.8-36.3v-72.6L262.8,214v-77L200,100.7L137.2,137v77l-66.7,38.5V325l62.8,36.3
				L200,322.8z"/>
		</g>
	</g>
	<g>
		<g>
			<g>
				
					<rect x="56.3" y="515.9" transform="matrix(0.8661 -0.4999 0.4999 0.8661 -241.9687 136.2569)" style="fill:#FFFFFF;" width="154" height="7.7"/>
			</g>
			<g>
				<polygon style="fill:#FFFFFF;" points="203.8,481.2 196.2,481.2 196.2,406.5 131.4,369.1 135.3,362.4 203.8,402 				"/>
			</g>
			<g>
				
					<rect x="262.8" y="442.8" transform="matrix(0.5001 -0.866 0.866 0.5001 -316.7797 490.7562)" style="fill:#FFFFFF;" width="7.7" height="154"/>
			</g>
		</g>
		<g>
			<path style="fill:#FFFFFF;" d="M266.7,601.2L200,562.7l-66.7,38.5l-70.5-40.7V479l66.7-38.5v-77l70.5-40.7l70.5,40.7v77
				l66.7,38.5v81.4L266.7,601.2z M200,553.8l66.7,38.5l62.8-36.3v-72.6L262.8,445v-77L200,331.7L137.2,368v77l-66.7,38.5V556
				l62.8,36.3L200,553.8z"/>
		</g>
	</g>
	<g>
		<g>
			<g>
				
					<rect x="56.3" y="746.9" transform="matrix(0.8661 -0.4999 0.4999 0.8661 -357.4461 167.192)" style="fill:#FFFFFF;" width="154" height="7.7"/>
			</g>
			<g>
				<polygon style="fill:#FFFFFF;" points="203.8,712.2 196.2,712.2 196.2,637.5 131.4,600.1 135.3,593.4 203.8,633 				"/>
			</g>
			<g>
				
					<rect x="262.8" y="673.8" transform="matrix(0.5001 -0.866 0.866 0.5001 -516.8197 606.2355)" style="fill:#FFFFFF;" width="7.7" height="154"/>
			</g>
		</g>
		<g>
			<path style="fill:#FFFFFF;" d="M266.7,832.2L200,793.7l-66.7,38.5l-70.5-40.7V710l66.7-38.5v-77l70.5-40.7l70.5,40.7v77
				l66.7,38.5v81.4L266.7,832.2z M200,784.8l66.7,38.5l62.8-36.3v-72.6L262.8,676v-77L200,562.7L137.2,599v77l-66.7,38.5V787
				l62.8,36.3L200,784.8z"/>
		</g>
	</g>
	<g>
		<g>
			<g>
				<polygon style="fill:#FFFFFF;" points="135.3,824.4 131.4,831.1 196.2,868.5 196.2,924 203.8,924 203.8,864 				"/>
			</g>
		</g>
		<g>
			<polygon style="fill:#FFFFFF;" points="270.5,825.5 200,784.8 129.5,825.5 129.5,902.5 92.3,924 107.7,924 137.2,907 137.2,830 
				200,793.7 262.8,830 262.8,907 292.3,924 307.7,924 270.5,902.5 			"/>
		</g>
	</g>
	<g>
		<g>
			<polygon style="fill:#FFFFFF;" points="107.7,0 92.3,0 66.7,14.8 41,0 25.6,0 66.7,23.7 			"/>
		</g>
	</g>
	<g>
		<g>
			<g>
				<polygon style="fill:#FFFFFF;" points="135.3,208.4 1.9,131.4 0,134.8 0,139.2 131.4,215.1 				"/>
			</g>
			<g>
				<polygon style="fill:#FFFFFF;" points="3.8,60 68.6,22.6 64.7,15.9 0,53.3 0,134.8 3.8,134.8 				"/>
			</g>
			<g>
				<polygon style="fill:#FFFFFF;" points="0,134.7 0,139.2 1.9,138.1 				"/>
			</g>
		</g>
		<g>
			<polygon style="fill:#FFFFFF;" points="66.7,254.7 137.2,214 137.2,132.5 70.5,94 70.5,17 41,0 25.6,0 62.8,21.5 62.8,98.5 
				129.5,137 129.5,209.5 66.7,245.8 0,207.3 0,207.3 0,216.2 0,216.2 			"/>
		</g>
	</g>
	<g>
		<g>
			<g>
				<polygon style="fill:#FFFFFF;" points="135.3,439.4 1.9,362.4 0,365.8 0,370.2 131.4,446.1 				"/>
			</g>
			<g>
				<polygon style="fill:#FFFFFF;" points="3.8,291 68.6,253.6 64.7,246.9 0,284.3 0,365.8 3.8,365.8 				"/>
			</g>
			<g>
				<polygon style="fill:#FFFFFF;" points="0,365.7 0,370.2 1.9,369.1 				"/>
			</g>
		</g>
		<g>
			<polygon style="fill:#FFFFFF;" points="66.7,485.7 137.2,445 137.2,363.5 70.5,325 70.5,248 0,207.3 0,207.3 0,216.2 0,216.2 
				62.8,252.5 62.8,329.5 129.5,368 129.5,440.5 66.7,476.8 0,438.3 0,438.3 0,447.2 0,447.2 			"/>
		</g>
	</g>
	<g>
		<g>
			<g>
				<polygon style="fill:#FFFFFF;" points="135.3,670.4 1.9,593.4 0,596.8 0,601.2 131.4,677.1 				"/>
			</g>
			<g>
				<polygon style="fill:#FFFFFF;" points="3.8,522 68.6,484.6 64.7,477.9 0,515.3 0,596.8 3.8,596.8 				"/>
			</g>
			<g>
				<polygon style="fill:#FFFFFF;" points="0,596.7 0,601.2 1.9,600.1 				"/>
			</g>
		</g>
		<g>
			<polygon style="fill:#FFFFFF;" points="66.7,716.7 137.2,676 137.2,594.5 70.5,556 70.5,479 0,438.3 0,438.3 0,447.2 0,447.2 
				62.8,483.5 62.8,560.5 129.5,599 129.5,671.5 66.7,707.8 0,669.3 0,669.3 0,678.2 0,678.2 			"/>
		</g>
	</g>
	<g>
		<g>
			<g>
				<polygon style="fill:#FFFFFF;" points="135.3,901.4 1.9,824.4 0,827.8 0,832.2 131.4,908.1 				"/>
			</g>
			<g>
				<polygon style="fill:#FFFFFF;" points="3.8,753 68.6,715.6 64.7,708.9 0,746.3 0,827.8 3.8,827.8 				"/>
			</g>
			<g>
				<polygon style="fill:#FFFFFF;" points="0,827.7 0,832.2 1.9,831.1 				"/>
			</g>
		</g>
		<g>
			<polygon style="fill:#FFFFFF;" points="137.2,825.5 70.5,787 70.5,710 0,669.3 0,669.3 0,678.2 0,678.2 62.8,714.5 62.8,791.5 
				129.5,830 129.5,902.5 92.3,924 107.7,924 137.2,907 			"/>
			<polygon style="fill:#FFFFFF;" points="0,900.3 0,900.3 0,909.2 0,909.2 25.6,924 41,924 			"/>
		</g>
	</g>
	<g>
		<g>
			<polygon style="fill:#FFFFFF;" points="0,900.3 0,909.2 0,909.2 25.6,924 41,924 0,900.3 			"/>
		</g>
	</g>
	<g>
		<g>
			<polygon style="fill:#FFFFFF;" points="374.4,0 359,0 333.3,14.8 307.7,0 292.3,0 333.3,23.7 			"/>
			<polygon style="fill:#FFFFFF;" points="466.7,14.8 441,0 425.6,0 466.7,23.7 507.7,0 492.3,0 			"/>
		</g>
	</g>
	<g>
		<g>
			<g>
				
					<rect x="462.8" y="96.3" transform="matrix(0.5001 -0.866 0.866 0.5001 83.262 490.7313)" style="fill:#FFFFFF;" width="7.7" height="154"/>
			</g>
			<g>
				<polygon style="fill:#FFFFFF;" points="403.8,134.8 396.2,134.8 396.2,55.5 464.7,15.9 468.6,22.6 403.8,60 				"/>
			</g>
			<g>
				
					<rect x="256.3" y="169.4" transform="matrix(0.8661 -0.4999 0.4999 0.8661 -41.9689 189.8347)" style="fill:#FFFFFF;" width="154" height="7.7"/>
			</g>
		</g>
		<g>
			<polygon style="fill:#FFFFFF;" points="329.5,94 262.8,132.5 262.8,214 333.3,254.7 400,216.2 466.7,254.7 537.2,214 
				537.2,132.5 470.5,94 470.5,17 441,0 425.6,0 462.8,21.5 462.8,98.5 529.5,137 529.5,209.5 466.7,245.8 400,207.3 333.3,245.8 
				270.5,209.5 270.5,137 337.2,98.5 337.2,21.5 374.4,0 359,0 329.5,17 			"/>
		</g>
	</g>
	<g>
		<g>
			<g>
				
					<rect x="462.8" y="327.3" transform="matrix(0.5001 -0.866 0.866 0.5001 -116.7779 606.2106)" style="fill:#FFFFFF;" width="7.7" height="154"/>
			</g>
			<g>
				<polygon style="fill:#FFFFFF;" points="403.8,365.8 396.2,365.8 396.2,286.5 464.7,246.9 468.6,253.6 403.8,291 				"/>
			</g>
			<g>
				
					<rect x="256.3" y="400.4" transform="matrix(0.8661 -0.4999 0.4999 0.8661 -157.4463 220.7699)" style="fill:#FFFFFF;" width="154" height="7.7"/>
			</g>
		</g>
		<g>
			<path style="fill:#FFFFFF;" d="M466.7,485.7L400,447.2l-66.7,38.5L262.8,445v-81.4l66.7-38.5v-77l70.5-40.7l70.5,40.7v77
				l66.7,38.5V445L466.7,485.7z M400,438.3l66.7,38.5l62.8-36.3V368l-66.7-38.5v-77L400,216.2l-62.8,36.3v77L270.5,368v72.6
				l62.8,36.3L400,438.3z"/>
		</g>
	</g>
	<g>
		<g>
			<g>
				
					<rect x="462.8" y="558.3" transform="matrix(0.5001 -0.866 0.866 0.5001 -316.8177 721.6898)" style="fill:#FFFFFF;" width="7.7" height="154"/>
			</g>
			<g>
				<polygon style="fill:#FFFFFF;" points="403.8,596.8 396.2,596.8 396.2,517.5 464.7,477.9 468.6,484.6 403.8,522 				"/>
			</g>
			<g>
				
					<rect x="256.3" y="631.4" transform="matrix(0.8661 -0.4999 0.4999 0.8661 -272.9237 251.705)" style="fill:#FFFFFF;" width="154" height="7.7"/>
			</g>
		</g>
		<g>
			<path style="fill:#FFFFFF;" d="M466.7,716.7L400,678.2l-66.7,38.5L262.8,676v-81.4l66.7-38.5v-77l70.5-40.7l70.5,40.7v77
				l66.7,38.5V676L466.7,716.7z M400,669.3l66.7,38.5l62.8-36.3V599l-66.7-38.5v-77L400,447.2l-62.8,36.3v77L270.5,599v72.6
				l62.8,36.3L400,669.3z"/>
		</g>
	</g>
	<g>
		<g>
			<g>
				
					<rect x="462.8" y="789.3" transform="matrix(0.5001 -0.866 0.866 0.5001 -516.8576 837.1689)" style="fill:#FFFFFF;" width="7.7" height="154"/>
			</g>
			<g>
				<polygon style="fill:#FFFFFF;" points="403.8,827.8 396.2,827.8 396.2,748.5 464.7,708.9 468.6,715.6 403.8,753 				"/>
			</g>
			<g>
				
					<rect x="256.3" y="862.4" transform="matrix(0.8661 -0.4999 0.4999 0.8661 -388.4012 282.6401)" style="fill:#FFFFFF;" width="154" height="7.7"/>
			</g>
		</g>
		<g>
			<polygon style="fill:#FFFFFF;" points="400,900.3 359,924 374.4,924 400,909.2 425.6,924 441,924 			"/>
			<polygon style="fill:#FFFFFF;" points="537.2,825.5 470.5,787 470.5,710 400,669.3 329.5,710 329.5,787 262.8,825.5 262.8,907 
				292.3,924 307.7,924 270.5,902.5 270.5,830 337.2,791.5 337.2,714.5 400,678.2 462.8,714.5 462.8,791.5 529.5,830 529.5,902.5 
				492.3,924 507.7,924 537.2,907 			"/>
		</g>
	</g>
	<g>
		<g>
			<polygon style="fill:#FFFFFF;" points="359,924 374.4,924 400,909.2 425.6,924 441,924 400,900.3 			"/>
		</g>
	</g>
	<g>
		<g>
			<polygon style="fill:#FFFFFF;" points="866.7,14.8 841,0 825.6,0 866.7,23.7 907.7,0 892.3,0 			"/>
			<polygon style="fill:#FFFFFF;" points="774.4,0 759,0 733.3,14.8 707.7,0 692.3,0 733.3,23.7 			"/>
		</g>
	</g>
	<g>
		<g>
			<g>
				
					<rect x="862.8" y="96.3" transform="matrix(0.5001 -0.866 0.866 0.5001 283.2258 837.1205)" style="fill:#FFFFFF;" width="7.7" height="154"/>
			</g>
			<g>
				<polygon style="fill:#FFFFFF;" points="803.8,134.8 796.2,134.8 796.2,55.5 864.7,15.9 868.6,22.6 803.8,60 				"/>
			</g>
			<g>
				
					<rect x="656.3" y="169.4" transform="matrix(0.8661 -0.4999 0.4999 0.8661 11.5984 389.7957)" style="fill:#FFFFFF;" width="154" height="7.7"/>
			</g>
		</g>
		<g>
			<polygon style="fill:#FFFFFF;" points="729.5,94 662.8,132.5 662.8,214 733.3,254.7 800,216.2 866.7,254.7 937.2,214 
				937.2,132.5 870.5,94 870.5,17 841,0 825.6,0 862.8,21.5 862.8,98.5 929.5,137 929.5,209.5 866.7,245.8 800,207.3 733.3,245.8 
				670.5,209.5 670.5,137 737.2,98.5 737.2,21.5 774.4,0 759,0 729.5,17 			"/>
		</g>
	</g>
	<g>
		<g>
			<g>
				
					<rect x="862.8" y="327.3" transform="matrix(0.5001 -0.866 0.866 0.5001 83.186 952.5997)" style="fill:#FFFFFF;" width="7.7" height="154"/>
			</g>
			<g>
				<polygon style="fill:#FFFFFF;" points="803.8,365.8 796.2,365.8 796.2,286.5 864.7,246.9 868.6,253.6 803.8,291 				"/>
			</g>
			<g>
				
					<rect x="656.3" y="400.4" transform="matrix(0.8661 -0.4999 0.4999 0.8661 -103.879 420.7308)" style="fill:#FFFFFF;" width="154" height="7.7"/>
			</g>
		</g>
		<g>
			<path style="fill:#FFFFFF;" d="M866.7,485.7L800,447.2l-66.7,38.5L662.8,445v-81.4l66.7-38.5v-77l70.5-40.7l70.5,40.7v77
				l66.7,38.5V445L866.7,485.7z M800,438.3l66.7,38.5l62.8-36.3V368l-66.7-38.5v-77L800,216.2l-62.8,36.3v77L670.5,368v72.6
				l62.8,36.3L800,438.3z"/>
		</g>
	</g>
	<g>
		<g>
			<g>
				
					<rect x="862.8" y="558.3" transform="matrix(0.5001 -0.866 0.866 0.5001 -116.8539 1068.0789)" style="fill:#FFFFFF;" width="7.7" height="154"/>
			</g>
			<g>
				<polygon style="fill:#FFFFFF;" points="803.8,596.8 796.2,596.8 796.2,517.5 864.7,477.9 868.6,484.6 803.8,522 				"/>
			</g>
			<g>
				
					<rect x="656.3" y="631.4" transform="matrix(0.8661 -0.4999 0.4999 0.8661 -219.3564 451.6659)" style="fill:#FFFFFF;" width="154" height="7.7"/>
			</g>
		</g>
		<g>
			<path style="fill:#FFFFFF;" d="M866.7,716.7L800,678.2l-66.7,38.5L662.8,676v-81.4l66.7-38.5v-77l70.5-40.7l70.5,40.7v77
				l66.7,38.5V676L866.7,716.7z M800,669.3l66.7,38.5l62.8-36.3V599l-66.7-38.5v-77L800,447.2l-62.8,36.3v77L670.5,599v72.6
				l62.8,36.3L800,669.3z"/>
		</g>
	</g>
	<g>
		<g>
			<g>
				
					<rect x="862.8" y="789.3" transform="matrix(0.5001 -0.866 0.866 0.5001 -316.8937 1183.558)" style="fill:#FFFFFF;" width="7.7" height="154"/>
			</g>
			<g>
				<polygon style="fill:#FFFFFF;" points="803.8,827.8 796.2,827.8 796.2,748.5 864.7,708.9 868.6,715.6 803.8,753 				"/>
			</g>
			<g>
				
					<rect x="656.3" y="862.4" transform="matrix(0.8661 -0.4999 0.4999 0.8661 -334.8339 482.601)" style="fill:#FFFFFF;" width="154" height="7.7"/>
			</g>
		</g>
		<g>
			<polygon style="fill:#FFFFFF;" points="800,900.3 759,924 774.4,924 800,909.2 825.6,924 841,924 			"/>
			<polygon style="fill:#FFFFFF;" points="937.2,825.5 870.5,787 870.5,710 800,669.3 729.5,710 729.5,787 662.8,825.5 662.8,907 
				692.3,924 707.7,924 670.5,902.5 670.5,830 737.2,791.5 737.2,714.5 800,678.2 862.8,714.5 862.8,791.5 929.5,830 929.5,902.5 
				892.3,924 907.7,924 937.2,907 			"/>
		</g>
	</g>
	<g>
		<g>
			<polygon style="fill:#FFFFFF;" points="759,924 774.4,924 800,909.2 825.6,924 841,924 800,900.3 			"/>
		</g>
	</g>
	<g>
		<g>
			<polygon style="fill:#FFFFFF;" points="1133.3,14.8 1107.7,0 1092.3,0 1133.3,23.7 1174.4,0 1159,0 			"/>
		</g>
	</g>
	<g>
		<g>
			<g>
				<polygon style="fill:#FFFFFF;" points="1198.1,138.1 1200,139.2 1200,134.7 				"/>
			</g>
			<g>
				<polygon style="fill:#FFFFFF;" points="1196.2,55.5 1196.2,134.8 1200,134.8 1200,53.3 				"/>
			</g>
			<g>
				<polygon style="fill:#FFFFFF;" points="1064.7,208.4 1068.6,215.1 1200,139.2 1200,134.8 1198.1,131.4 				"/>
			</g>
		</g>
		<g>
			<polygon style="fill:#FFFFFF;" points="1200,207.3 1133.3,245.8 1070.5,209.5 1070.5,137 1137.2,98.5 1137.2,21.5 1174.4,0 
				1159,0 1129.5,17 1129.5,94 1062.8,132.5 1062.8,214 1133.3,254.7 1200,216.2 1200,216.2 1200,207.3 			"/>
		</g>
	</g>
	<g>
		<g>
			<g>
				<polygon style="fill:#FFFFFF;" points="1198.1,369.1 1200,370.2 1200,365.7 				"/>
			</g>
			<g>
				<polygon style="fill:#FFFFFF;" points="1196.2,286.5 1196.2,365.8 1200,365.8 1200,284.3 				"/>
			</g>
			<g>
				<polygon style="fill:#FFFFFF;" points="1064.7,439.4 1068.6,446.1 1200,370.2 1200,365.8 1198.1,362.4 				"/>
			</g>
		</g>
		<g>
			<polygon style="fill:#FFFFFF;" points="1200,438.3 1133.3,476.8 1070.5,440.5 1070.5,368 1137.2,329.5 1137.2,252.5 1200,216.2 
				1200,216.2 1200,207.3 1200,207.3 1129.5,248 1129.5,325 1062.8,363.5 1062.8,445 1133.3,485.7 1200,447.2 1200,447.2 
				1200,438.3 			"/>
		</g>
	</g>
	<g>
		<g>
			<g>
				<polygon style="fill:#FFFFFF;" points="1198.1,600.1 1200,601.2 1200,596.7 				"/>
			</g>
			<g>
				<polygon style="fill:#FFFFFF;" points="1196.2,517.5 1196.2,596.8 1200,596.8 1200,515.3 				"/>
			</g>
			<g>
				<polygon style="fill:#FFFFFF;" points="1064.7,670.4 1068.6,677.1 1200,601.2 1200,596.8 1198.1,593.4 				"/>
			</g>
		</g>
		<g>
			<polygon style="fill:#FFFFFF;" points="1200,669.3 1133.3,707.8 1070.5,671.5 1070.5,599 1137.2,560.5 1137.2,483.5 1200,447.2 
				1200,447.2 1200,438.3 1200,438.3 1129.5,479 1129.5,556 1062.8,594.5 1062.8,676 1133.3,716.7 1200,678.2 1200,678.2 
				1200,669.3 			"/>
		</g>
	</g>
	<g>
		<g>
			<g>
				<polygon style="fill:#FFFFFF;" points="1198.1,831.1 1200,832.2 1200,827.7 				"/>
			</g>
			<g>
				<polygon style="fill:#FFFFFF;" points="1196.2,748.5 1196.2,827.8 1200,827.8 1200,746.3 				"/>
			</g>
			<g>
				<polygon style="fill:#FFFFFF;" points="1064.7,901.4 1068.6,908.1 1200,832.2 1200,827.8 1198.1,824.4 				"/>
			</g>
		</g>
		<g>
			<polygon style="fill:#FFFFFF;" points="1200,900.3 1159,924 1174.4,924 1200,909.2 1200,909.2 1200,900.3 			"/>
			<polygon style="fill:#FFFFFF;" points="1070.5,902.5 1070.5,830 1137.2,791.5 1137.2,714.5 1200,678.2 1200,678.2 1200,669.3 
				1200,669.3 1129.5,710 1129.5,787 1062.8,825.5 1062.8,907 1092.3,924 1107.7,924 			"/>
		</g>
	</g>
	<g>
		<g>
			<polygon style="fill:#FFFFFF;" points="1200,909.2 1200,909.2 1200,900.3 1200,900.3 1159,924 1174.4,924 			"/>
		</g>
	</g>
</g>
</svg>
