<svg xmlns="http://www.w3.org/2000/svg" viewBox="0 0 257.3 289.5" enable-background="new 0 0 257.3 289.5">
	<g fill="#42ffff">
		<path opacity=".5" d="M131.5 10.2l-12.7-7.4V0l12.7 7.4zM138.1 13.9l-4.6-2.6V8.5l4.6 2.6zM143.1 16.9l-3.1-1.8v-2.8l3.1 1.8zM125.7 13.2l-6.9-4V6.4l6.9 4zM136.2 19.3l-8.5-5v-2.8l8.5 5zM141.3 22.2l-3.2-1.8v-2.8l3.2 1.8zM146.1 25l-3.1-1.8v-2.8l3.1 1.8z"/>
		<path d="M123.8 18.5l-5-2.9v-2.8l5 2.9zM127.5 20.6l-1.8-1v-2.8l1.8 1z"/>
		<path opacity=".5" d="M132.5 23.6l-3.1-1.8v-2.9l3.1 1.9zM137.3 32.7L118.8 22v-2.8l18.5 10.7zM143.9 36.5l-4.6-2.7V31l4.6 2.7zM123.8 31.3l-5-2.9v-2.8l5 2.9zM135.6 38.1l-9.9-5.7v-2.8l9.9 5.7zM140.7 41.1l-3.2-1.8v-2.9l3.2 1.9zM129.1 40.7l-10.3-5.9V32l10.3 5.9z"/>
		<path d="M138.4 46.2l-7.4-4.3v-2.8l7.4 4.3z"/>
		<path opacity=".5" d="M145.4 50.2l-5-2.9v-2.8l5 2.9zM122.2 43.2l-3.4-2v-2.8l3.4 2zM128.8 47l-4.6-2.7v-2.8l4.6 2.7zM138.1 52.4l-7.4-4.3v-2.8l7.4 4.3zM129.4 53.8l-10.6-6.2v-2.8l10.6 6.2zM141.3 60.6l-9.9-5.7v-2.8l9.9 5.7z"/>
		<path d="M146.4 63.6l-3.1-1.8V59l3.1 1.8z"/>
		<path opacity=".5" d="M151.3 66.4l-3.1-1.8v-2.8l3.1 1.8zM125.1 57.7l-6.3-3.7v-2.8l6.3 3.7z"/>
		<path d="M151.8 21.9l8.9 5.1v-2.8l-8.9-5.1z"/>
		<path opacity=".5" d="M153.7 29.4l7 4v-2.8l-7-4zM155.6 36.9l5.1 2.9V37l-5.1-2.9zM153.4 42l7.3 4.2v-2.8l-7.3-4.2zM155.6 49.7l5.1 2.9v-2.8l-5.1-2.9zM154.3 55.3l6.4 3.7v-2.8l-6.4-3.7zM157.2 63.4l3.5 2v-2.8l-3.5-2zM153.9 67.9l6.8 3.9V69l-6.8-3.9zM154.3 74.5l6.4 3.7v-2.8l-6.4-3.7zM129.8 60.4l-2.7-1.6V56l2.7 1.6zM137.9 65l-6.1-3.5v-2.8l6.1 3.5zM181 38.6l-12.8-7.3v-2.8l12.8 7.3zM187.5 42.4l-4.6-2.6v-2.9l4.6 2.7z"/>
		<path d="M192.6 45.3l-3.1-1.8v-2.8l3.1 1.8z"/>
		<path opacity=".5" d="M175.2 41.7l-7-4v-2.8l7 4zM185.7 47.7l-8.6-4.9V40l8.6 4.9z"/>
		<path d="M190.7 50.6l-3.1-1.8V46l3.1 1.8z"/>
		<path opacity=".5" d="M195.6 53.4l-3.2-1.8v-2.8l3.2 1.8zM173.3 47l-5.1-2.9v-2.8l5.1 2.9zM176.9 49.1l-1.7-1v-2.8l1.7 1zM182 52l-3.1-1.8v-2.8l3.1 1.8zM186.8 61.2l-18.6-10.7v-2.8l18.6 10.7zM193.3 65l-4.5-2.7v-2.8l4.5 2.7zM173.3 59.8l-5.1-2.9v-2.8l5.1 2.9zM185.1 66.6l-9.9-5.7v-2.8l9.9 5.7zM190.1 69.5l-3.1-1.8v-2.8l3.1 1.8z"/>
		<path d="M178.5 69.2l-10.3-5.9v-2.8l10.3 5.9z"/>
		<path opacity=".5" d="M187.9 74.6l-7.4-4.3v-2.8l7.4 4.3zM194.9 78.7l-5-2.9v-2.9l5 3zM171.7 71.7l-3.5-2v-2.8l3.5 2zM178.3 75.4l-4.6-2.6V70l4.6 2.6z"/>
		<path d="M187.6 80.8l-7.4-4.2v-2.8l7.4 4.2z"/>
		<path opacity=".5" d="M178.9 82.2l-10.7-6.1v-2.8l10.7 6.1zM190.8 89.1l-10-5.8v-2.8l10 5.8zM195.9 92l-3.1-1.8v-2.8l3.1 1.8zM200.8 94.8l-3.2-1.8v-2.8l3.2 1.8zM174.6 86.1l-6.4-3.6v-2.8l6.4 3.6z"/>
		<path d="M201.3 50.3l8.8 5.2v-2.8l-8.8-5.2z"/>
		<path opacity=".5" d="M203.2 57.8l6.9 4.1v-2.8l-6.9-4.1zM205.1 65.4l5 2.9v-2.8l-5-3zM202.8 70.4l7.3 4.3v-2.8l-7.3-4.3zM205.1 78.2l5 2.9v-2.8l-5-2.9zM203.8 83.8l6.3 3.7v-2.8l-6.3-3.7zM206.7 91.9l3.4 2v-2.8l-3.4-2.1zM203.4 96.4l6.7 3.9v-2.8l-6.7-3.9zM203.8 103l6.3 3.7v-2.8l-6.3-3.7z"/>
		<path d="M179.3 88.8l-2.7-1.5v-2.8l2.7 1.5z"/>
		<path opacity=".5" d="M187.3 93.5l-6.1-3.5v-2.8l6.1 3.5zM131.5 67.8l-12.7-7.4v-2.8l12.7 7.4zM138.1 71.6l-4.6-2.7v-2.8l4.6 2.7zM143.1 74.5l-3.1-1.8v-2.8l3.1 1.8zM125.7 70.9l-6.9-4.1V64l6.9 4.1zM136.2 76.9l-8.5-4.9v-2.8l8.5 4.9zM141.3 79.8l-3.2-1.8v-2.8l3.2 1.8zM146.1 82.6l-3.1-1.8V78l3.1 1.8zM123.8 76.2l-5-3v-2.8l5 2.9zM127.5 78.3l-1.8-1v-2.8l1.8 1zM132.5 81.2l-3.1-1.8v-2.8l3.1 1.8zM137.3 90.4l-18.5-10.8v-2.8l18.5 10.8zM143.9 94.1l-4.6-2.6v-2.8l4.6 2.6zM123.8 89l-5-3v-2.8l5 3zM135.6 95.8l-9.9-5.7v-2.8l9.9 5.7zM140.7 98.7l-3.2-1.8v-2.8l3.2 1.8zM129.1 98.4l-10.3-6v-2.8l10.3 6zM138.4 103.8l-7.4-4.3v-2.8l7.4 4.3zM145.4 107.8l-5-2.9v-2.8l5 2.9zM122.2 100.9l-3.4-2V96l3.4 2.1zM128.8 104.6l-4.6-2.6v-2.8l4.6 2.6zM138.1 110l-7.4-4.2V103l7.4 4.2zM129.4 111.4l-10.6-6.1v-2.9l10.6 6.2zM141.3 118.3l-9.9-5.8v-2.8l9.9 5.8zM146.4 121.2l-3.1-1.8v-2.8l3.1 1.8zM151.3 124l-3.1-1.8v-2.8l3.1 1.8zM125.1 115.3l-6.3-3.6v-2.8l6.3 3.6zM151.8 79.5l8.9 5.1v-2.8l-8.9-5.1zM153.7 87l7 4v-2.8l-7-4zM155.6 94.5l5.1 2.9v-2.8l-5.1-2.9zM153.4 99.6l7.3 4.2V101l-7.3-4.2zM155.6 107.3l5.1 2.9v-2.8l-5.1-2.9zM154.3 113l6.4 3.6v-2.8l-6.4-3.6zM157.2 121l3.5 2v-2.8l-3.5-2zM153.9 125.6l6.8 3.8v-2.8l-6.8-3.8zM154.3 132.2l6.4 3.6V133l-6.4-3.6zM129.8 118l-2.7-1.5v-2.8l2.7 1.5zM137.9 122.7l-6.1-3.5v-2.8l6.1 3.5zM142.9 144.2l-10.3-5.9v-2.8l10.3 5.9zM150 148.3l-4.1-2.4v-2.8l4.1 2.4zM181 96.3l-12.8-7.4v-2.8l12.8 7.4zM187.5 100l-4.6-2.6v-2.8l4.6 2.6zM192.6 103l-3.1-1.8v-2.8l3.1 1.8zM175.2 99.3l-7-4v-2.8l7 4zM185.7 105.4l-8.6-5v-2.8l8.6 5zM190.7 108.3l-3.1-1.8v-2.8l3.1 1.8zM195.6 111.1l-3.2-1.8v-2.8l3.2 1.8zM173.3 104.6l-5.1-2.9v-2.8l5.1 2.9zM176.9 106.7l-1.7-1v-2.8l1.7 1zM182 109.7l-3.1-1.8V105l3.1 1.9zM186.8 118.8l-18.6-10.7v-2.8l18.6 10.7zM193.3 122.6l-4.5-2.7v-2.8l4.5 2.7zM173.3 117.4l-5.1-2.9v-2.8l5.1 2.9zM185.1 124.2l-9.9-5.7v-2.8l9.9 5.7zM190.1 127.2l-3.1-1.8v-2.9l3.1 1.9zM178.5 126.8l-10.3-5.9v-2.8l10.3 5.9zM187.9 132.3l-7.4-4.3v-2.8l7.4 4.3zM194.9 136.3l-5-2.9v-2.8l5 2.9zM171.7 129.3l-3.5-2v-2.8l3.5 2zM178.3 133.1l-4.6-2.7v-2.8l4.6 2.7zM187.6 138.5l-7.4-4.3v-2.8l7.4 4.3zM178.9 139.9l-10.7-6.2v-2.8l10.7 6.2zM190.8 146.7l-10-5.7v-2.8l10 5.7zM195.9 149.7l-3.1-1.8v-2.8l3.1 1.8zM200.8 152.5l-3.2-1.8v-2.8l3.2 1.8zM174.6 143.8l-6.4-3.7v-2.8l6.4 3.7zM201.3 108l8.8 5.1v-2.8l-8.8-5.1zM203.2 115.5l6.9 4v-2.8l-6.9-4zM205.1 123l5 2.9v-2.8l-5-2.9zM202.8 128.1l7.3 4.2v-2.8l-7.3-4.2zM205.1 135.8l5 2.9v-2.8l-5-2.9zM203.8 141.4l6.3 3.7v-2.8l-6.3-3.7zM206.7 149.5l3.4 2v-2.8l-3.4-2zM203.4 154l6.7 3.9v-2.8l-6.7-3.9zM203.8 160.6l6.3 3.7v-2.8l-6.3-3.7zM179.3 146.5l-2.7-1.6v-2.8l2.7 1.6zM187.3 151.1l-6.1-3.5v-2.8l6.1 3.5zM192.4 172.7l-10.3-6v-2.8l10.3 6zM199.4 176.7l-4-2.3v-2.8l4 2.3z"/>
	</g>
	<linearGradient id="a" gradientUnits="userSpaceOnUse" y1="177.8" x2="134" y2="177.8">
		<stop offset="0" stop-color="#42ffff"/>
		<stop offset=".2" stop-color="#43faff"/>
		<stop offset=".3" stop-color="#45ecff"/>
		<stop offset=".5" stop-color="#49d4ff"/>
		<stop offset=".7" stop-color="#4eb3ff"/>
		<stop offset=".9" stop-color="#5489ff"/>
		<stop offset="1" stop-color="#5778ff"/>
	</linearGradient>
	<path d="M67 217.3a96 96 0 0 1-47-11.2c-12.9-7.5-20-17.5-20-28.2 0-10.8 7.1-20.8 20-28.2 25.9-15 68.1-15 94 0 12.9 7.5 20 17.5 20 28.2 0 10.8-7.1 20.8-20 28.2a95.8 95.8 0 0 1-47 11.2zm0-76.5a93.7 93.7 0 0 0-45.8 10.9c-12.1 7-18.8 16.3-18.8 26.1s6.7 19.1 18.8 26.1A93.4 93.4 0 0 0 67 214.8c17.3 0 33.6-3.9 45.8-10.9 12.1-7 18.8-16.3 18.8-26.1s-6.7-19.1-18.8-26.1A94.5 94.5 0 0 0 67 140.8z" fill="url(#a)"/>
	<path d="M101.6 197.8c-19.1 11-50 11-69.1 0-19.1-11-19.1-28.9 0-39.9s50-11 69.1 0c19.1 11 19.1 28.9 0 39.9z" fill="#242993" opacity=".7"/>
	<linearGradient id="b" gradientUnits="userSpaceOnUse" x1="7.1" y1="156.6" x2="126.9" y2="156.6">
		<stop offset="0" stop-color="#5778ff"/>
		<stop offset=".2" stop-color="#5c7dff"/>
		<stop offset=".4" stop-color="#6a8aff"/>
		<stop offset=".6" stop-color="#82a0ff"/>
		<stop offset=".8" stop-color="#a3beff"/>
		<stop offset="1" stop-color="#bcd5ff"/>
	</linearGradient>
	<path d="M126.9 156.6v-13.3h-4.6a40.1 40.1 0 0 0-12.9-11.2 93.6 93.6 0 0 0-84.7 0c-5.7 3.3-10 7.1-12.9 11.2H7.1v13.3c0 8.8 5.8 17.7 17.5 24.4a93.6 93.6 0 0 0 84.7 0c11.7-6.8 17.6-15.6 17.6-24.4z" fill="url(#b)"/>
	<path d="M109.3 167.7a93.6 93.6 0 0 1-84.7 0c-23.4-13.5-23.4-35.4 0-48.9a93.6 93.6 0 0 1 84.7 0c23.4 13.5 23.4 35.4 0 48.9z" fill="#bcd5ff"/>
	<path d="M122.3 142.8v-18.1h-4.2a37.7 37.7 0 0 0-12-10.3 86.2 86.2 0 0 0-78.2 0c-5.3 3-9.3 6.6-12 10.3h-4.2v18.1c0 8.2 5.4 16.3 16.2 22.6a86.2 86.2 0 0 0 78.2 0c10.8-6.3 16.2-14.5 16.2-22.6z" fill="#242993"/>
	<path d="M122.3 138.4v-18.1h-4.2a37.7 37.7 0 0 0-12-10.3 86.2 86.2 0 0 0-78.2 0c-5.3 3-9.3 6.6-12 10.3h-4.2v18.1c0 8.2 5.4 16.3 16.2 22.6a86.2 86.2 0 0 0 78.2 0c10.8-6.3 16.2-14.4 16.2-22.6z" fill="#4553c7" opacity=".5"/>
	<path d="M106.1 147.2a86.2 86.2 0 0 1-78.2 0c-21.6-12.5-21.6-32.7 0-45.1 21.6-12.5 56.6-12.5 78.2 0s21.6 32.6 0 45.1z" fill="#bcd5ff"/>
	<path d="M105.1 148.1a67 67 0 0 1-32.6 22 77.3 77.3 0 0 0 33.6-9.2c10.8-6.2 16.2-14.4 16.2-22.6V133a58 58 0 0 0-17.2 15.1z" fill="#5368d8" opacity=".5"/>
	<linearGradient id="c" gradientUnits="userSpaceOnUse" x1="7.1" y1="124.3" x2="126.9" y2="124.3">
		<stop offset="0" stop-color="#5778ff"/>
		<stop offset=".2" stop-color="#5c7dff"/>
		<stop offset=".4" stop-color="#6a8aff"/>
		<stop offset=".6" stop-color="#82a0ff"/>
		<stop offset=".8" stop-color="#a3beff"/>
		<stop offset="1" stop-color="#bcd5ff"/>
	</linearGradient>
	<path d="M126.9 124.3V111h-4.6a40.1 40.1 0 0 0-12.9-11.2 93.6 93.6 0 0 0-84.7 0c-5.7 3.3-10 7.1-12.9 11.2H7.1v13.3c0 8.8 5.8 17.7 17.5 24.4a93.6 93.6 0 0 0 84.7 0c11.7-6.7 17.6-15.5 17.6-24.4z" fill="url(#c)"/>
	<path d="M109.3 135.5a93.4 93.4 0 0 1-84.6 0c-23.4-13.5-23.4-35.4 0-48.9a93.6 93.6 0 0 1 84.7 0c23.3 13.5 23.3 35.4-.1 48.9z" fill="#bcd5ff"/>
	<path d="M122.3 109.9V91.8h-4.2a37.7 37.7 0 0 0-12-10.3 86.2 86.2 0 0 0-78.2 0c-5.3 3-9.3 6.6-12 10.3h-4.2v18.1c0 8.2 5.4 16.3 16.2 22.6a86.2 86.2 0 0 0 78.2 0c10.8-6.3 16.2-14.4 16.2-22.6z" fill="#242993"/>
	<path d="M122.3 105.7V87.6h-4.2a37.7 37.7 0 0 0-12-10.3 86.2 86.2 0 0 0-78.2 0c-5.3 3-9.3 6.6-12 10.3h-4.2v18.1c0 8.2 5.4 16.3 16.2 22.6a86.2 86.2 0 0 0 78.2 0c10.8-6.2 16.2-14.4 16.2-22.6z" fill="#4553c7" opacity=".5"/>
	<path d="M106.1 114.3c-21.6 12.5-56.6 12.5-78.2 0s-21.6-32.7 0-45.1a86.2 86.2 0 0 1 78.2 0c21.6 12.5 21.6 32.7 0 45.1z" fill="#bcd5ff"/>
	<g>
		<path d="M105.1 113.5a70.6 70.6 0 0 1-40 24.1c14.8.3 29.7-2.8 41-9.3 10.8-6.2 16.2-14.4 16.2-22.6v-7.3a58 58 0 0 0-17.2 15.1z" fill="#5368d8" opacity=".5"/>
		<linearGradient id="d" gradientUnits="userSpaceOnUse" x1="7.1" y1="91.5" x2="126.9" y2="91.5">
			<stop offset="0" stop-color="#5778ff"/>
			<stop offset=".2" stop-color="#5c7dff"/>
			<stop offset=".4" stop-color="#6a8aff"/>
			<stop offset=".6" stop-color="#82a0ff"/>
			<stop offset=".8" stop-color="#a3beff"/>
			<stop offset="1" stop-color="#bcd5ff"/>
		</linearGradient>
		<path d="M126.9 91.5V78.2h-4.6A40.1 40.1 0 0 0 109.4 67a93.6 93.6 0 0 0-84.7 0c-5.7 3.3-10 7.1-12.9 11.2H7.1v13.3c0 8.8 5.8 17.7 17.5 24.4a93.6 93.6 0 0 0 84.7 0c11.7-6.7 17.6-15.6 17.6-24.4z" fill="url(#d)"/>
		<path d="M109.3 102.6a93.6 93.6 0 0 1-84.7 0c-23.4-13.5-23.4-35.4 0-48.9a93.6 93.6 0 0 1 84.7 0c23.4 13.5 23.4 35.4 0 48.9z" fill="#bcd5ff"/>
	</g>
	<g>
		<path d="M122.3 77V58.9h-4.2a37.7 37.7 0 0 0-12-10.3 86.2 86.2 0 0 0-78.2 0c-5.3 3-9.3 6.6-12 10.3h-4.2V77c0 8.2 5.4 16.3 16.2 22.6a86.2 86.2 0 0 0 78.2 0c10.8-6.3 16.2-14.4 16.2-22.6z" fill="#242993"/>
		<path d="M122.3 71.9V53.8h-4.2a37.7 37.7 0 0 0-12-10.3 86.2 86.2 0 0 0-78.2 0c-5.3 3-9.3 6.6-12 10.3h-4.2v18.1c0 8.2 5.4 16.3 16.2 22.6a86.2 86.2 0 0 0 78.2 0c10.8-6.2 16.2-14.4 16.2-22.6z" fill="#4553c7" opacity=".5"/>
		<path d="M106.1 81.5a86.2 86.2 0 0 1-78.2 0C6.3 69 6.3 48.8 27.9 36.3s56.6-12.5 78.2 0 21.6 32.7 0 45.2z" fill="#bcd5ff"/>
	</g>
	<g>
		<linearGradient id="e" gradientUnits="userSpaceOnUse" x1="7.1" y1="58.6" x2="126.9" y2="58.6">
			<stop offset="0" stop-color="#5778ff"/>
			<stop offset=".2" stop-color="#5c7dff"/>
			<stop offset=".4" stop-color="#6a8aff"/>
			<stop offset=".6" stop-color="#82a0ff"/>
			<stop offset=".8" stop-color="#a3beff"/>
			<stop offset="1" stop-color="#bcd5ff"/>
		</linearGradient>
		<path d="M126.9 58.6V45.3h-4.6a40.1 40.1 0 0 0-12.9-11.2 93.6 93.6 0 0 0-84.7 0c-5.7 3.3-10 7.1-12.9 11.2H7.1v13.3c0 8.8 5.8 17.7 17.5 24.4a93.6 93.6 0 0 0 84.7 0c11.7-6.7 17.6-15.6 17.6-24.4z" fill="url(#e)"/>
		<path d="M109.3 69.8a93.6 93.6 0 0 1-84.7 0c-23.4-13.5-23.4-35.4 0-48.9a93.6 93.6 0 0 1 84.7 0c23.4 13.5 23.4 35.4 0 48.9z" fill="#bcd5ff"/>
		<path d="M109.3 69.8a93.6 93.6 0 0 1-84.7 0c-23.4-13.5-23.4-35.4 0-48.9a93.6 93.6 0 0 1 84.7 0c23.4 13.5 23.4 35.4 0 48.9z" fill="#bcd5ff"/>
	</g>
	<g>
		<path d="M105.1 79a71 71 0 0 1-43.2 24.7c15.8.8 32.1-2.2 44.2-9.2 10.8-6.2 16.2-14.4 16.2-22.6v-8.1A58.5 58.5 0 0 0 105.1 79z" fill="#5368d8" opacity=".5"/>
		<linearGradient id="f" gradientUnits="userSpaceOnUse" x1="7.1" y1="58.6" x2="126.9" y2="58.6">
			<stop offset="0" stop-color="#5778ff"/>
			<stop offset=".2" stop-color="#5c7dff"/>
			<stop offset=".4" stop-color="#6a8aff"/>
			<stop offset=".6" stop-color="#82a0ff"/>
			<stop offset=".8" stop-color="#a3beff"/>
			<stop offset="1" stop-color="#bcd5ff"/>
		</linearGradient>
		<path d="M126.9 58.6V45.3h-4.6a40.1 40.1 0 0 0-12.9-11.2 93.6 93.6 0 0 0-84.7 0c-5.7 3.3-10 7.1-12.9 11.2H7.1v13.3c0 8.8 5.8 17.7 17.5 24.4a93.6 93.6 0 0 0 84.7 0c11.7-6.7 17.6-15.6 17.6-24.4z" fill="url(#f)"/>
		<path d="M109.3 69.8a93.6 93.6 0 0 1-84.7 0c-23.4-13.5-23.4-35.4 0-48.9a93.6 93.6 0 0 1 84.7 0c23.4 13.5 23.4 35.4 0 48.9z" fill="#bcd5ff"/>
		<path d="M109.3 69.8a93.6 93.6 0 0 1-84.7 0c-23.4-13.5-23.4-35.4 0-48.9a93.6 93.6 0 0 1 84.7 0c23.4 13.5 23.4 35.4 0 48.9z" fill="#bcd5ff"/>
		<path d="M109.7 68.7a93.6 93.6 0 0 1-84.7 0C10.7 60.4 5.2 49 8.4 38.3c-3.9 11 1.5 22.9 16.3 31.4a93.6 93.6 0 0 0 84.7 0C118.5 64.5 124 58 126 51.2a35 35 0 0 1-16.3 17.5z" fill="#fff"/>
		<path d="M109.7 101.6a93.6 93.6 0 0 1-84.7 0C10.7 93.3 5.2 81.9 8.4 71.2c-3.9 11 1.5 22.9 16.3 31.4a93.6 93.6 0 0 0 84.7 0c9.1-5.2 14.6-11.7 16.6-18.5a35 35 0 0 1-16.3 17.5z" fill="#fff"/>
		<path d="M109.7 134.5a93.6 93.6 0 0 1-84.7 0c-14.3-8.3-19.8-19.7-16.6-30.4-3.9 11 1.5 22.9 16.3 31.4a93.6 93.6 0 0 0 84.7 0c9.1-5.2 14.6-11.7 16.6-18.5a35 35 0 0 1-16.3 17.5z" fill="#fff"/>
		<path d="M109.7 167.3a93.6 93.6 0 0 1-84.7 0C10.7 159.1 5.2 147.7 8.4 137c-3.9 11 1.5 22.9 16.3 31.4a93.6 93.6 0 0 0 84.7 0c9.1-5.2 14.6-11.7 16.6-18.5a34.4 34.4 0 0 1-16.3 17.4z" fill="#fff"/>
	</g>
	<defs>
		<filter id="g" filterUnits="userSpaceOnUse" x="7.1" y="27.8" width="59.9" height="32">
			<feFlood result="back" flood-color="#fff" flood-opacity="1"/>
			<feBlend in="SourceGraphic" in2="back"/>
		</filter>
	</defs>
	<mask maskUnits="userSpaceOnUse" x="7.1" y="27.8" width="59.9" height="32" id="i">
		<g filter="url(#g)">
			<defs>
				<filter id="h" filterUnits="userSpaceOnUse" x="7.1" y="27.8" width="59.9" height="32">
					<feFlood result="back" flood-color="#fff" flood-opacity="1"/>
					<feBlend in="SourceGraphic" in2="back"/>
				</filter>
			</defs>
			<linearGradient id="j" gradientUnits="userSpaceOnUse" x1="7.1" y1="43.8" x2="67" y2="43.8">
				<stop offset="0"/>
				<stop offset="0" stop-color="#2f2f2f"/>
				<stop offset=".1" stop-color="#5a5a5a"/>
				<stop offset=".2" stop-color="#828282"/>
				<stop offset=".2" stop-color="#a4a4a4"/>
				<stop offset=".3" stop-color="silver"/>
				<stop offset=".4" stop-color="#d7d7d7"/>
				<stop offset=".4" stop-color="#e9e9e9"/>
				<stop offset=".5" stop-color="#f6f6f6"/>
				<stop offset=".7" stop-color="#fdfdfd"/>
				<stop offset="1" stop-color="#fff"/>
			</linearGradient>
			<path d="M12.7 59.8H67v-32H15.4c-10 9.8-10.9 21.8-2.7 32z" mask="url(#i)" fill="url(#j)"/>
		</g>
	</mask>
	<linearGradient id="k" gradientUnits="userSpaceOnUse" x1="7.1" y1="43.8" x2="67" y2="43.8">
		<stop offset="0" stop-color="#e9ffff"/>
		<stop offset="0" stop-color="#d3ebff"/>
		<stop offset=".1" stop-color="#b2ccff"/>
		<stop offset=".2" stop-color="#96b2ff"/>
		<stop offset=".3" stop-color="#7f9dff"/>
		<stop offset=".4" stop-color="#6d8cff"/>
		<stop offset=".5" stop-color="#6081ff"/>
		<stop offset=".6" stop-color="#597aff"/>
		<stop offset="1" stop-color="#5778ff"/>
	</linearGradient>
	<path d="M12.7 59.8H67v-32H15.4c-10 9.8-10.9 21.8-2.7 32z" opacity=".8" fill="url(#k)"/>
	<g>
		<linearGradient id="l" gradientUnits="userSpaceOnUse" x1="36.3" y1="42.1" x2="97.7" y2="42.1">
			<stop offset="0" stop-color="#5778ff"/>
			<stop offset=".2" stop-color="#5c7dff"/>
			<stop offset=".4" stop-color="#6a8aff"/>
			<stop offset=".6" stop-color="#82a0ff"/>
			<stop offset=".8" stop-color="#a3beff"/>
			<stop offset="1" stop-color="#bcd5ff"/>
		</linearGradient>
		<path d="M97.7 42.1v-6.8h-2.4a21 21 0 0 0-6.6-5.7 48.3 48.3 0 0 0-43.5 0 21 21 0 0 0-6.6 5.7h-2.4v6.8c0 4.5 3 9.1 9 12.5 12 6.9 31.5 6.9 43.5 0 6-3.4 9-8 9-12.5z" fill="url(#l)"/>
		<path d="M88.7 47.8a48.3 48.3 0 0 1-43.5 0c-12-6.9-12-18.2 0-25.1 12-6.9 31.5-6.9 43.5 0s12 18.2 0 25.1z" fill="#bcd5ff"/>
		<linearGradient id="m" gradientUnits="userSpaceOnUse" x1="36.3" y1="35.3" x2="97.7" y2="35.3">
			<stop offset="0" stop-color="#c0d6ff"/>
			<stop offset=".3" stop-color="#c5dbff"/>
			<stop offset=".6" stop-color="#d3e9ff"/>
			<stop offset="1" stop-color="#e9ffff"/>
		</linearGradient>
		<path d="M88.7 47.8a48.3 48.3 0 0 1-43.5 0c-12-6.9-12-18.2 0-25.1 12-6.9 31.5-6.9 43.5 0s12 18.2 0 25.1z" fill="url(#m)"/>
		<path d="M81.6 43.7a32.2 32.2 0 0 1-29.3 0 13.2 13.2 0 0 1-5.2-5c-2.1-4.1 3.1-7 8.7-10.2 8.1-4.7 13.8-5.8 21.9-1.2 5.6 3.2 11.2 7.3 9.1 11.4a12 12 0 0 1-5.2 5z" fill="#242993"/>
		<linearGradient id="n" gradientUnits="userSpaceOnUse" x1="46.3" y1="31" x2="87.7" y2="31">
			<stop offset="0" stop-color="#bcd5ff"/>
			<stop offset=".2" stop-color="#a3beff"/>
			<stop offset=".4" stop-color="#82a0ff"/>
			<stop offset=".6" stop-color="#6a8aff"/>
			<stop offset=".8" stop-color="#5c7dff"/>
			<stop offset="1" stop-color="#5778ff"/>
		</linearGradient>
		<path d="M52.4 33.6a32.2 32.2 0 0 1 29.3 0c2.5 1.5 4.3 3.2 5.2 5 2.1-4.1.4-8.6-5.2-11.9a32.2 32.2 0 0 0-29.3 0c-5.6 3.2-7.3 7.8-5.2 11.9.9-1.8 2.7-3.5 5.2-5z" fill="url(#n)"/>
	</g>
	<g>
		<path d="M100.7 95.8c-4 1.6-7 1.2-6.7-1 .3-2.1 3.8-5.1 7.9-6.7 4-1.6 7-1.2 6.7 1-.3 2.1-3.9 5.1-7.9 6.7zM100.7 129.1c-4 1.6-7 1.2-6.7-1 .3-2.1 3.8-5.1 7.9-6.7 4-1.6 7-1.2 6.7 1-.3 2.1-3.9 5.1-7.9 6.7zM100.9 162.7c-4 1.6-7 1.2-6.7-1 .3-2.1 3.8-5.1 7.9-6.7 4-1.6 7-1.2 6.7 1-.3 2.1-3.8 5.1-7.9 6.7z" fill="#677eea" opacity=".5"/>
		<ellipse transform="rotate(-35.5 111.3 86)" cx="111.3" cy="86.1" rx="2.1" ry="1.6" fill="#677eea" opacity=".5"/>
		<ellipse transform="rotate(-35.5 111.3 119.6)" cx="111.3" cy="119.6" rx="2.1" ry="1.6" fill="#677eea" opacity=".5"/>
		<ellipse transform="rotate(-35.5 111.3 153)" cx="111.3" cy="153" rx="2.1" ry="1.6" fill="#677eea" opacity=".5"/>
	</g>
	<g>
		<linearGradient id="o" gradientUnits="userSpaceOnUse" x1="12.1" y1="269.1" x2="78.5" y2="269.1">
			<stop offset="0" stop-color="#5778ff"/>
			<stop offset=".1" stop-color="#5489ff"/>
			<stop offset=".3" stop-color="#4eb3ff"/>
			<stop offset=".5" stop-color="#49d4ff"/>
			<stop offset=".7" stop-color="#45ecff"/>
			<stop offset=".8" stop-color="#43faff"/>
			<stop offset="1" stop-color="#42ffff"/>
		</linearGradient>
		<path d="M13.3 289.5c-.4 0-.8-.2-1.1-.6-.4-.6-.2-1.3.4-1.7l63.9-38.4c.6-.4 1.3-.2 1.7.4.4.6.2 1.3-.4 1.7l-63.9 38.4c-.2.2-.4.2-.6.2z" fill="url(#o)"/>
		<linearGradient id="p" gradientUnits="userSpaceOnUse" x1="59.1" y1="202.7" x2="257.3" y2="202.7">
			<stop offset="0" stop-color="#42ffff"/>
			<stop offset=".2" stop-color="#43faff"/>
			<stop offset=".3" stop-color="#45ecff"/>
			<stop offset=".5" stop-color="#49d4ff"/>
			<stop offset=".7" stop-color="#4eb3ff"/>
			<stop offset=".9" stop-color="#5489ff"/>
			<stop offset="1" stop-color="#5778ff"/>
		</linearGradient>
		<path d="M97.8 260.4c-1.5 0-3.1-.4-4.4-1.1l-32-18.5c-1.4-.8-2.3-2-2.3-3.2 0-1.1.6-2.1 1.8-2.7l154.2-89a8.5 8.5 0 0 1 7.9.3l32 18.5c1.4.8 2.3 2 2.3 3.2 0 1.1-.6 2.1-1.8 2.7l-154.2 89c-.9.6-2.2.8-3.5.8zm2.9-1.8zm117.9-111.2c-.9 0-1.7.2-2.3.5L62.1 237c-.3.2-.5.4-.5.6 0 .3.3.7 1 1.1l32 18.5c1.6.9 4.1 1 5.4.3l154.2-89c.3-.2.5-.4.5-.6 0-.3-.3-.7-1-1.1l-32-18.5c-.8-.6-2-.9-3.1-.9z" fill="url(#p)"/>
		<linearGradient id="q" gradientUnits="userSpaceOnUse" x1="-45.1" y1="-78" x2="139.8" y2="-78" gradientTransform="matrix(.866 -.5 0 1.1547 97.7 255.1)">
			<stop offset="0" stop-color="#5778ff"/>
			<stop offset=".2" stop-color="#5c7dff"/>
			<stop offset=".4" stop-color="#6a8aff"/>
			<stop offset=".6" stop-color="#82a0ff"/>
			<stop offset=".8" stop-color="#a3beff"/>
			<stop offset="1" stop-color="#bcd5ff"/>
		</linearGradient>
		<path d="M193 94.3a43.7 43.7 0 0 0-11.3 9.5c-4.7-15.2-19.2-19.9-36.3-10.1a83.3 83.3 0 0 0-33 41.2c-2.2.1-4.6.8-7.1 2.3a37 37 0 0 0-16.7 28.9v.7c-2.6.2-5.5 1.1-8.6 2.9-11.8 6.8-21.4 23.4-21.4 37S68.2 225.9 80 219l113-65.2a57 57 0 0 0 25.8-44.7c0-16.3-11.6-23-25.8-14.8z" fill="url(#q)"/>
		<radialGradient id="r" cx="96.3" cy="139.6" r="76.4" fx="24.3" fy="114.2" gradientUnits="userSpaceOnUse">
			<stop offset="0" stop-color="#2b3aa5"/>
			<stop offset="1" stop-color="#182484"/>
		</radialGradient>
		<path d="M193 94.3c-2.4 1.4-4.6 3-6.8 5L173.6 92c-6.9-4.9-17-4.7-28.2 1.8a83.3 83.3 0 0 0-33 41.2c-2.2.1-4.6.8-7.1 2.3a37 37 0 0 0-16.7 28.9v.7c-2.6.2-5.5 1.1-8.6 2.9a47.3 47.3 0 0 0-21.4 37c0 6.8 2.4 11.5 6.2 13.8l.1.1 30.9 18 6.8-32.5L193 154c14.2-8.2 25.8-28.2 25.8-44.7s-11.6-23.2-25.8-15z" fill="url(#r)"/>
		<linearGradient id="s" gradientUnits="userSpaceOnUse" x1="58.7" y1="163.6" x2="242.7" y2="163.6">
			<stop offset="0" stop-color="#5778ff"/>
			<stop offset=".2" stop-color="#5c7dff"/>
			<stop offset=".4" stop-color="#6a8aff"/>
			<stop offset=".6" stop-color="#82a0ff"/>
			<stop offset=".8" stop-color="#a3beff"/>
			<stop offset="1" stop-color="#bcd5ff"/>
		</linearGradient>
		<path d="M242.7 110.8l-31.3-18.2c-4.7-2.8-11.2-2.4-18.4 1.7-2.4 1.4-4.6 3-6.8 5L173.6 92c-6.9-4.9-17-4.7-28.2 1.8a83.3 83.3 0 0 0-33 41.2c-2.2.1-4.6.8-7.1 2.3a37 37 0 0 0-16.7 28.9v.7c-2.6.2-5.5 1.1-8.6 2.9a47.3 47.3 0 0 0-21.4 37c0 6.8 2.4 11.5 6.2 13.8l.1.1 30.9 18 6.8-32.5L193 154a58.2 58.2 0 0 0 24.6-35.1l25.1-8.1z" fill="url(#s)"/>
		<linearGradient id="t" gradientUnits="userSpaceOnUse" x1="-9.3" y1="-46.8" x2="175.6" y2="-46.8" gradientTransform="matrix(.866 -.5 0 1.1547 97.7 255.1)">
			<stop offset="0" stop-color="#c0d6ff"/>
			<stop offset=".3" stop-color="#c5dbff"/>
			<stop offset=".6" stop-color="#d3e9ff"/>
			<stop offset="1" stop-color="#e9ffff"/>
		</linearGradient>
		<path d="M224 112.4a43.7 43.7 0 0 0-11.3 9.5c-4.7-15.2-19.2-19.9-36.3-10.1a83.3 83.3 0 0 0-33 41.2c-2.2.1-4.6.8-7.1 2.3a37 37 0 0 0-16.7 28.9v.7c-2.6.2-5.5 1.1-8.6 2.9-11.8 6.8-21.4 23.4-21.4 37s9.6 19.2 21.4 12.3l113-65.2a57 57 0 0 0 25.8-44.7c0-16.4-11.5-23.1-25.8-14.8z" fill="url(#t)"/>
		<g fill="#fff">
			<path d="M212.7 121.9c3.4-3.9 7.2-7.2 11.3-9.5 8.7-5 16.4-4.5 21.1.5-4.6-5.7-12.6-6.6-21.8-1.3a46.8 46.8 0 0 0-11 9.2l.4 1.1zM89.7 224.8c0-13.6 9.6-30.2 21.4-37 3.1-1.8 6-2.7 8.6-2.9v-.7c0-10.7 7.5-23.6 16.7-28.9 2.5-1.5 5-2.2 7.1-2.3a82.4 82.4 0 0 1 33-41.2c13-7.5 24.4-6.6 31.2.9-6.7-8.3-18.5-9.5-32-1.8a83.3 83.3 0 0 0-33 41.2c-2.2.1-4.6.8-7.1 2.3a37 37 0 0 0-16.7 28.9v.7c-2.6.2-5.5 1.1-8.6 2.9A47.3 47.3 0 0 0 89 224c0 5.4 1.5 9.4 4 12a17.6 17.6 0 0 1-3.3-11.2z"/>
		</g>
	</g>
</svg>
