<svg xmlns="http://www.w3.org/2000/svg" viewBox="0 0 380.8 312">
	<linearGradient id="a" gradientUnits="userSpaceOnUse" x1="67.8" y1="236" x2="134.2" y2="236">
		<stop offset="0" stop-color="#5778ff"/>
		<stop offset=".1" stop-color="#5489ff"/>
		<stop offset=".3" stop-color="#4eb3ff"/>
		<stop offset=".5" stop-color="#49d4ff"/>
		<stop offset=".7" stop-color="#45ecff"/>
		<stop offset=".8" stop-color="#43faff"/>
		<stop offset="1" stop-color="#42ffff"/>
	</linearGradient>
	<path d="M69 256.4c-.4 0-.8-.2-1.1-.6-.4-.6-.2-1.3.4-1.7l63.9-38.4c.6-.4 1.3-.2 1.7.4.4.6.2 1.3-.4 1.7l-63.9 38.4c-.1.2-.4.2-.6.2z" fill="url(#a)"/>
	<linearGradient id="b" gradientUnits="userSpaceOnUse" x1="114.8" y1="169.6" x2="313" y2="169.6">
		<stop offset="0" stop-color="#42ffff"/>
		<stop offset=".2" stop-color="#43faff"/>
		<stop offset=".3" stop-color="#45ecff"/>
		<stop offset=".5" stop-color="#49d4ff"/>
		<stop offset=".7" stop-color="#4eb3ff"/>
		<stop offset=".9" stop-color="#5489ff"/>
		<stop offset="1" stop-color="#5778ff"/>
	</linearGradient>
	<path d="M153.5 227.4c-1.5 0-3.1-.4-4.4-1.1l-32-18.5c-1.4-.8-2.3-2-2.3-3.2 0-1.1.6-2.1 1.8-2.7l154.2-89a8.5 8.5 0 0 1 7.9.3l32 18.5c1.4.8 2.3 2 2.3 3.2 0 1.1-.6 2.1-1.8 2.7l-154.2 89c-.9.5-2.2.8-3.5.8zm2.9-1.9zm117.9-111.1c-.9 0-1.7.2-2.3.5l-154.2 89c-.3.2-.5.4-.5.6 0 .3.3.7 1 1.1l32 18.5c1.6.9 4.1 1 5.4.3l154.2-89c.3-.2.5-.4.5-.6 0-.3-.3-.7-1-1.1l-32-18.5c-.8-.6-2-.8-3.1-.8z" fill="url(#b)"/>
	<linearGradient id="c" gradientUnits="userSpaceOnUse" x1="10.6" y1="-111.1" x2="195.5" y2="-111.1" gradientTransform="matrix(.866 -.5 0 1.1547 105.2 288.1)">
		<stop offset="0" stop-color="#5778ff"/>
		<stop offset=".2" stop-color="#5c7dff"/>
		<stop offset=".4" stop-color="#6a8aff"/>
		<stop offset=".6" stop-color="#82a0ff"/>
		<stop offset=".8" stop-color="#a3beff"/>
		<stop offset="1" stop-color="#bcd5ff"/>
	</linearGradient>
	<path d="M248.7 61.2a43.7 43.7 0 0 0-11.3 9.5c-4.7-15.2-19.2-19.9-36.3-10.1a83.3 83.3 0 0 0-33 41.2c-2.2.1-4.6.8-7.1 2.3a37 37 0 0 0-16.7 28.9v.7c-2.6.2-5.5 1.1-8.6 2.9-11.8 6.8-21.4 23.4-21.4 37s9.6 19.2 21.4 12.3l113-65.2A57 57 0 0 0 274.5 76c0-16.3-11.5-23-25.8-14.8z" fill="url(#c)"/>
	<radialGradient id="d" cx="152" cy="106.5" r="76.4" fx="80" fy="81.1" gradientUnits="userSpaceOnUse">
		<stop offset="0" stop-color="#2b3aa5"/>
		<stop offset="1" stop-color="#182484"/>
	</radialGradient>
	<path d="M248.7 61.2c-2.4 1.4-4.6 3-6.8 5l-12.6-7.3c-6.9-4.9-17-4.7-28.2 1.8a83.3 83.3 0 0 0-33 41.2c-2.2.1-4.6.8-7.1 2.3a37 37 0 0 0-16.7 28.9v.7c-2.6.2-5.5 1.1-8.6 2.9a47.3 47.3 0 0 0-21.4 37c0 6.8 2.4 11.5 6.2 13.8l.1.1 30.9 18 6.8-32.5 90.4-52.2c14.2-8.2 25.8-28.2 25.8-44.7S263 53 248.7 61.2z" fill="url(#d)"/>
	<linearGradient id="e" gradientUnits="userSpaceOnUse" x1="114.4" y1="130.5" x2="298.4" y2="130.5">
		<stop offset="0" stop-color="#5778ff"/>
		<stop offset=".2" stop-color="#5c7dff"/>
		<stop offset=".4" stop-color="#6a8aff"/>
		<stop offset=".6" stop-color="#82a0ff"/>
		<stop offset=".8" stop-color="#a3beff"/>
		<stop offset="1" stop-color="#bcd5ff"/>
	</linearGradient>
	<path d="M298.4 77.7l-31.3-18.2c-4.7-2.8-11.2-2.4-18.4 1.7-2.4 1.4-4.6 3-6.8 5l-12.6-7.3c-6.9-4.9-17-4.7-28.2 1.8a83.3 83.3 0 0 0-33 41.2c-2.2.1-4.6.8-7.1 2.3a37 37 0 0 0-16.7 28.9v.7c-2.6.2-5.5 1.1-8.6 2.9a47.3 47.3 0 0 0-21.4 37c0 6.8 2.4 11.5 6.2 13.8l.1.1 30.9 18 6.8-32.5 90.4-52.2a58.2 58.2 0 0 0 24.6-35.1l25.1-8.1z" fill="url(#e)"/>
	<linearGradient id="f" gradientUnits="userSpaceOnUse" x1="46.4" y1="-79.9" x2="231.4" y2="-79.9" gradientTransform="matrix(.866 -.5 0 1.1547 105.2 288.1)">
		<stop offset="0" stop-color="#c0d6ff"/>
		<stop offset=".3" stop-color="#c5dbff"/>
		<stop offset=".6" stop-color="#d3e9ff"/>
		<stop offset="1" stop-color="#e9ffff"/>
	</linearGradient>
	<path d="M279.8 79.3a43.7 43.7 0 0 0-11.3 9.5c-4.7-15.2-19.2-19.9-36.3-10.1a83.3 83.3 0 0 0-33 41.2c-2.2.1-4.6.8-7.1 2.3a37 37 0 0 0-16.7 28.9v.7c-2.6.2-5.5 1.1-8.6 2.9-11.8 6.8-21.4 23.4-21.4 37s9.6 19.2 21.4 12.3l113-65.2a57 57 0 0 0 25.8-44.7c0-16.4-11.6-23.1-25.8-14.8z" fill="url(#f)"/>
	<g fill="#fff">
		<path d="M268.5 88.8c3.4-3.9 7.2-7.2 11.3-9.5 8.7-5 16.4-4.5 21.1.5-4.6-5.7-12.6-6.6-21.8-1.3a46.8 46.8 0 0 0-11 9.2l.4 1.1zM145.4 191.7c0-13.6 9.6-30.2 21.4-37 3.1-1.8 6-2.7 8.6-2.9v-.7c0-10.7 7.5-23.6 16.7-28.9 2.5-1.5 5-2.2 7.1-2.3a82.4 82.4 0 0 1 33-41.2c13-7.5 24.4-6.6 31.2.9-6.7-8.3-18.5-9.5-32-1.8a83.3 83.3 0 0 0-33 41.2c-2.2.1-4.6.8-7.1 2.3a37 37 0 0 0-16.7 28.9v.7c-2.6.2-5.5 1.1-8.6 2.9a47.3 47.3 0 0 0-21.4 37c0 5.4 1.5 9.4 4 12-2-2.5-3.2-6.3-3.2-11.1z"/>
	</g>
</svg>
