<svg xmlns="http://www.w3.org/2000/svg" viewBox="0 0 200 235.3" enable-background="new 0 0 200 235.3">
	<linearGradient id="a" gradientUnits="userSpaceOnUse" x1="104.2" y1="150.1" x2="164.2" y2="150.1">
		<stop offset="0" stop-color="#42ffff"/>
		<stop offset=".2" stop-color="#43faff"/>
		<stop offset=".3" stop-color="#45ecff"/>
		<stop offset=".5" stop-color="#49d4ff"/>
		<stop offset=".7" stop-color="#4eb3ff"/>
		<stop offset=".9" stop-color="#5489ff"/>
		<stop offset="1" stop-color="#5778ff"/>
	</linearGradient>
	<path d="M162.4 176.1l-58-33.8a.5.5 0 0 1-.3-.5c0-.2.1-.4.3-.5l31.4-17.6c.3-.2.7-.1.8.2.2.3.1.7-.2.8L106 141.9l57.9 33.7c.2.1.3.3.3.5s-.1.4-.3.5l-1.5-.5z" fill="url(#a)"/>
	<linearGradient id="b" gradientUnits="userSpaceOnUse" x1="24.7" y1="85.7" x2="139.4" y2="85.7">
		<stop offset="0" stop-color="#42ffff"/>
		<stop offset=".2" stop-color="#43faff"/>
		<stop offset=".3" stop-color="#45ecff"/>
		<stop offset=".5" stop-color="#49d4ff"/>
		<stop offset=".7" stop-color="#4eb3ff"/>
		<stop offset=".9" stop-color="#5489ff"/>
		<stop offset="1" stop-color="#5778ff"/>
	</linearGradient>
	<path d="M25 101.3a.5.5 0 0 1-.3-.5c0-.2.1-.4.3-.5l57.5-31.5h.6l56 32.8c.3.2.4.5.2.8-.2.3-.5.4-.8.2L82.8 70l-56.2 30.8" fill="url(#b)"/>
	<path d="M140.6 149.8l-41.8-24.1c-.9-.5-.8-1.4.3-2l12.3-7.1 45.1 26-12.3 7.1c-1.1.6-2.7.7-3.6.1z" opacity=".5" fill="#242993"/>
	<linearGradient id="c" gradientUnits="userSpaceOnUse" x1="180.8" y1="92.4" x2="110.6" y2="148.6">
		<stop offset="0" stop-color="#bcd5ff"/>
		<stop offset=".2" stop-color="#a3beff"/>
		<stop offset=".4" stop-color="#82a0ff"/>
		<stop offset=".6" stop-color="#6a8aff"/>
		<stop offset=".8" stop-color="#5c7dff"/>
		<stop offset="1" stop-color="#5778ff"/>
	</linearGradient>
	<path d="M200 117v-8.3h-13.6l-30.1-17.4c-.7-.4-2-.4-2.9.1l-30 17.3h-13.5v8.4c0 .3.2.5.5.7l43.2 24.9c.7.4 2 .4 2.9-.1l42.8-24.7c.5-.3.7-.6.7-.9z" fill="url(#c)"/>
	<linearGradient id="d" gradientUnits="userSpaceOnUse" x1="-140.3" y1="396.4" x2="-204" y2="447.6" gradientTransform="rotate(30 448 1303.8) skewX(-30)">
		<stop offset="0" stop-color="#c0d6ff"/>
		<stop offset=".3" stop-color="#c5dbff"/>
		<stop offset=".6" stop-color="#d3e9ff"/>
		<stop offset="1" stop-color="#e9ffff"/>
	</linearGradient>
	<path d="M153.7 134.4l-43.2-24.9c-.7-.4-.6-1.2.2-1.7l42.8-24.7c.9-.5 2.1-.5 2.9-.1l43.2 24.9c.7.4.6 1.2-.2 1.7l-42.8 24.7c-.9.4-2.2.5-2.9.1z" fill="url(#d)"/>
	<path d="M153.8 131.4l-38.3-22.1c-.7-.4-.6-1 .2-1.5L153.6 86c.8-.4 1.9-.5 2.6-.1l38.3 22.1c.7.4.6 1-.2 1.5l-37.9 21.9a3 3 0 0 1-2.6 0z" fill="#242993"/>
	<path d="M153.9 129.6l-35.2-20.3c-.6-.3-.5-1 .2-1.4l34.8-20.1c.7-.4 1.7-.4 2.3-.1l35.2 20.3c.6.3.5 1-.2 1.4l-34.8 20.1c-.6.4-1.7.4-2.3.1z" fill="#4553c7"/>
	<path d="M154.2 124.1l-25.9-15c-.4-.3-.4-.7.1-1l25.7-14.8a2 2 0 0 1 1.7-.1l25.9 15c.4.3.4.7-.1 1L155.9 124c-.5.3-1.3.4-1.7.1z" opacity=".5" fill="#242993"/>
	<g fill="#42ffff">
		<path d="M154.2 107.3l-4.1-2.3 2.2-1.3 4.1 2.3zM161.8 107l-4.1 2.4-2.2-1.3 4.1-2.4zM153.3 107.9l-2.3 1.3-2.2-1.3 2.2-1.3zM161 112.4l-2.2 1.2-6.5-3.7 2.2-1.3z"/>
	</g>
	<g>
		<path fill="#bcd5ff" d="M155 40.6l-35.2-20.3L155 0l35.2 20.3z"/>
		<path fill="#fff" d="M155 118.5l-35.2-20.3L155 77.9l35.2 20.3z"/>
		<linearGradient id="e" gradientUnits="userSpaceOnUse" x1="172.6" y1="96.6" x2="172.6" y2="22.4">
			<stop offset="0" stop-color="#c0d6ff"/>
			<stop offset=".3" stop-color="#c5dbff"/>
			<stop offset=".6" stop-color="#d3e9ff"/>
			<stop offset="1" stop-color="#e9ffff"/>
		</linearGradient>
		<path fill="url(#e)" d="M190.2 20.3v77.9L155 118.5V40.6z"/>
		<path fill="#242993" d="M119.8 20.3v77.9l35.2 20.3V40.6z"/>
		<path fill="#4553c7" d="M122.2 25.5v70l30.4 17.6V43z" opacity=".5"/>
		<path fill="#4553c7" d="M184.9 39.1v2.1l-24.6 14.2v-2.1zM184.9 47.8v2.1l-24.6 14.2V62zM184.9 56.5v2.1l-24.6 14.2v-2zM184.9 65.3v2l-24.6 14.2v-2zM184.9 74v2l-24.6 14.2v-2zM184.9 82.7v2l-24.6 14.2v-2z"/>
		<path fill="#fff" d="M155 39.9L120.4 20l-.6.3L155 40.6l35.2-20.3-.6-.3z"/>
		<defs>
			<filter id="f" filterUnits="userSpaceOnUse" x="119.8" y="4" width="35.2" height="31.3">
				<feFlood result="back" flood-color="#fff" flood-opacity="1"/>
				<feBlend in="SourceGraphic" in2="back"/>
			</filter>
		</defs>
		<mask maskUnits="userSpaceOnUse" x="119.8" y="4" width="35.2" height="31.3" id="h">
			<g filter="url(#f)">
				<defs>
					<filter id="g" filterUnits="userSpaceOnUse" x="119.8" y="4" width="35.2" height="31.3">
						<feFlood result="back" flood-color="#fff" flood-opacity="1"/>
						<feBlend in="SourceGraphic" in2="back"/>
					</filter>
				</defs>
				<linearGradient id="i" gradientUnits="userSpaceOnUse" x1="119.8" y1="19.6" x2="155" y2="19.6">
					<stop offset="0"/>
					<stop offset="0" stop-color="#2f2f2f"/>
					<stop offset=".1" stop-color="#5a5a5a"/>
					<stop offset=".2" stop-color="#828282"/>
					<stop offset=".2" stop-color="#a4a4a4"/>
					<stop offset=".3" stop-color="silver"/>
					<stop offset=".4" stop-color="#d7d7d7"/>
					<stop offset=".4" stop-color="#e9e9e9"/>
					<stop offset=".5" stop-color="#f6f6f6"/>
					<stop offset=".7" stop-color="#fdfdfd"/>
					<stop offset="1" stop-color="#fff"/>
				</linearGradient>
				<path mask="url(#h)" fill="url(#i)" d="M155 35.3h-9.2l-26-15L148 4h7z"/>
			</g>
		</mask>
		<linearGradient id="j" gradientUnits="userSpaceOnUse" x1="119.8" y1="19.6" x2="155" y2="19.6">
			<stop offset="0" stop-color="#e9ffff"/>
			<stop offset="0" stop-color="#d3ebff"/>
			<stop offset=".1" stop-color="#b2ccff"/>
			<stop offset=".2" stop-color="#96b2ff"/>
			<stop offset=".3" stop-color="#7f9dff"/>
			<stop offset=".4" stop-color="#6d8cff"/>
			<stop offset=".5" stop-color="#6081ff"/>
			<stop offset=".6" stop-color="#597aff"/>
			<stop offset="1" stop-color="#5778ff"/>
		</linearGradient>
		<path opacity=".8" fill="url(#j)" d="M155 35.3h-9.2l-26-15L148 4h7z"/>
		<linearGradient id="k" gradientUnits="userSpaceOnUse" x1="129.5" y1="18.7" x2="180.5" y2="18.7">
			<stop offset="0" stop-color="#c0d6ff"/>
			<stop offset=".3" stop-color="#c5dbff"/>
			<stop offset=".6" stop-color="#d3e9ff"/>
			<stop offset="1" stop-color="#e9ffff"/>
		</linearGradient>
		<path fill="url(#k)" d="M155 33.5l-25.5-14.8L155 4l25.5 14.7z"/>
		<linearGradient id="l" gradientUnits="userSpaceOnUse" x1="171" y1="32.8" x2="164.8" y2="21.9">
			<stop offset="0" stop-color="#c0d6ff"/>
			<stop offset=".3" stop-color="#c5dbff"/>
			<stop offset=".6" stop-color="#d3e9ff"/>
			<stop offset="1" stop-color="#e9ffff"/>
		</linearGradient>
		<path fill="url(#l)" d="M180.5 18.7v1.8L155 35.3v-1.8z"/>
		<linearGradient id="m" gradientUnits="userSpaceOnUse" x1="142.2" y1="27.6" x2="142.2" y2="11.1">
			<stop offset="0" stop-color="#5778ff"/>
			<stop offset=".2" stop-color="#5c7dff"/>
			<stop offset=".4" stop-color="#6a8aff"/>
			<stop offset=".6" stop-color="#82a0ff"/>
			<stop offset=".8" stop-color="#a3beff"/>
			<stop offset="1" stop-color="#bcd5ff"/>
		</linearGradient>
		<path fill="url(#m)" d="M129.5 18.7v1.8L155 35.3v-1.8z"/>
		<path fill="#3f38fc" d="M145.1 19l-1.1-.7.1-.5 10.4-6.1 1.5.7-.3.4z"/>
		<linearGradient id="n" gradientUnits="userSpaceOnUse" x1="143.2" y1="14.8" x2="156.5" y2="14.8">
			<stop offset="0" stop-color="#5778ff"/>
			<stop offset=".2" stop-color="#5c7dff"/>
			<stop offset=".4" stop-color="#6a8aff"/>
			<stop offset=".6" stop-color="#82a0ff"/>
			<stop offset=".8" stop-color="#a3beff"/>
			<stop offset="1" stop-color="#bcd5ff"/>
		</linearGradient>
		<path fill="url(#n)" d="M154.6 12.2l1.1.6.8-.4-1.9-1-11.4 6.5.8.4z"/>
		<path fill="#3f38fc" d="M148.5 21l-1.1-.7.1-.5 10.5-6.1 1.4.7-.2.4z"/>
		<linearGradient id="o" gradientUnits="userSpaceOnUse" x1="146.7" y1="16.8" x2="159.9" y2="16.8">
			<stop offset="0" stop-color="#5778ff"/>
			<stop offset=".2" stop-color="#5c7dff"/>
			<stop offset=".4" stop-color="#6a8aff"/>
			<stop offset=".6" stop-color="#82a0ff"/>
			<stop offset=".8" stop-color="#a3beff"/>
			<stop offset="1" stop-color="#bcd5ff"/>
		</linearGradient>
		<path fill="url(#o)" d="M158 14.2l1.2.6.7-.4-1.9-1.1-11.3 6.6.7.4z"/>
		<g>
			<path fill="#3f38fc" d="M152 22.9l-1.2-.6.1-.6 10.5-6.1 1.5.7-.3.5z"/>
			<linearGradient id="p" gradientUnits="userSpaceOnUse" x1="150.1" y1="18.8" x2="163.3" y2="18.8">
				<stop offset="0" stop-color="#5778ff"/>
				<stop offset=".2" stop-color="#5c7dff"/>
				<stop offset=".4" stop-color="#6a8aff"/>
				<stop offset=".6" stop-color="#82a0ff"/>
				<stop offset=".8" stop-color="#a3beff"/>
				<stop offset="1" stop-color="#bcd5ff"/>
			</linearGradient>
			<path fill="url(#p)" d="M161.5 16.1l1.1.7.7-.4-1.8-1.1-11.4 6.6.7.4z"/>
		</g>
		<g>
			<path fill="#3f38fc" d="M155.4 24.9l-1.1-.6.1-.6 10.4-6.1 1.5.7-.3.5z"/>
			<linearGradient id="q" gradientUnits="userSpaceOnUse" x1="153.5" y1="20.8" x2="166.7" y2="20.8">
				<stop offset="0" stop-color="#5778ff"/>
				<stop offset=".2" stop-color="#5c7dff"/>
				<stop offset=".4" stop-color="#6a8aff"/>
				<stop offset=".6" stop-color="#82a0ff"/>
				<stop offset=".8" stop-color="#a3beff"/>
				<stop offset="1" stop-color="#bcd5ff"/>
			</linearGradient>
			<path fill="url(#q)" d="M164.9 18.1l1.1.7.7-.5-1.8-1-11.4 6.5.8.5z"/>
		</g>
		<g opacity=".5">
			<path fill="#4553c7" d="M119.8 85.9L155 64.7V40.6l-35.2-20.3z"/>
		</g>
		<g>
			<linearGradient id="r" gradientUnits="userSpaceOnUse" x1="150.2" y1="43.5" x2="153.6" y2="43.5">
				<stop offset="0" stop-color="#c0d6ff"/>
				<stop offset=".3" stop-color="#c5dbff"/>
				<stop offset=".6" stop-color="#d3e9ff"/>
				<stop offset="1" stop-color="#e9ffff"/>
			</linearGradient>
			<path d="M153.6 44.1c0-.9-.6-2-1.4-2.4-.4-.2-.7-.2-1-.1l-1 .6h.6v.3c0 .9.6 2 1.4 2.4l.3.1-.3.5 1-.6c.2 0 .4-.3.4-.8z" fill="url(#r)"/>
			<linearGradient id="s" gradientUnits="userSpaceOnUse" x1="149.8" y1="43.9" x2="152.6" y2="43.9">
				<stop offset="0" stop-color="#5778ff"/>
				<stop offset=".2" stop-color="#5c7dff"/>
				<stop offset=".4" stop-color="#6a8aff"/>
				<stop offset=".6" stop-color="#82a0ff"/>
				<stop offset=".8" stop-color="#a3beff"/>
				<stop offset="1" stop-color="#bcd5ff"/>
			</linearGradient>
			<path d="M152.6 44.7c0 .9-.6 1.3-1.4.8-.8-.4-1.4-1.5-1.4-2.4s.6-1.3 1.4-.8a3 3 0 0 1 1.4 2.4z" fill="url(#s)"/>
			<path d="M152 44.3c0 .5-.4.7-.8.5-.4-.3-.8-.9-.8-1.4 0-.5.4-.7.8-.5.5.3.8.9.8 1.4z" fill="#3f38fc"/>
		</g>
		<g>
			<linearGradient id="t" gradientUnits="userSpaceOnUse" x1="120.7" y1="25.4" x2="124.1" y2="25.4">
				<stop offset="0" stop-color="#c0d6ff"/>
				<stop offset=".3" stop-color="#c5dbff"/>
				<stop offset=".6" stop-color="#d3e9ff"/>
				<stop offset="1" stop-color="#e9ffff"/>
			</linearGradient>
			<path d="M124.1 26c0-.9-.6-2-1.4-2.4-.4-.2-.7-.2-1-.1l-1 .6h.6v.3c0 .9.6 2 1.4 2.4l.3.1-.3.5 1-.6c.3 0 .4-.4.4-.8z" fill="url(#t)"/>
			<linearGradient id="u" gradientUnits="userSpaceOnUse" x1="120.3" y1="25.8" x2="123.1" y2="25.8">
				<stop offset="0" stop-color="#5778ff"/>
				<stop offset=".2" stop-color="#5c7dff"/>
				<stop offset=".4" stop-color="#6a8aff"/>
				<stop offset=".6" stop-color="#82a0ff"/>
				<stop offset=".8" stop-color="#a3beff"/>
				<stop offset="1" stop-color="#bcd5ff"/>
			</linearGradient>
			<path d="M123.1 26.6c0 .9-.6 1.3-1.4.8a3 3 0 0 1-1.4-2.4c0-.9.6-1.3 1.4-.8a3 3 0 0 1 1.4 2.4z" fill="url(#u)"/>
			<path d="M122.5 26.2c0 .5-.4.7-.8.5-.4-.3-.8-.9-.8-1.4 0-.5.4-.7.8-.5.5.3.8.9.8 1.4z" fill="#3f38fc"/>
		</g>
		<g>
			<linearGradient id="v" gradientUnits="userSpaceOnUse" x1="150.2" y1="113.3" x2="153.6" y2="113.3">
				<stop offset="0" stop-color="#c0d6ff"/>
				<stop offset=".3" stop-color="#c5dbff"/>
				<stop offset=".6" stop-color="#d3e9ff"/>
				<stop offset="1" stop-color="#e9ffff"/>
			</linearGradient>
			<path d="M153.6 113.9c0-.9-.6-2-1.4-2.4-.4-.2-.7-.2-1-.1l-1 .6h.6v.3c0 .9.6 2 1.4 2.4l.3.1-.3.5 1-.6c.2 0 .4-.4.4-.8z" fill="url(#v)"/>
			<linearGradient id="w" gradientUnits="userSpaceOnUse" x1="149.8" y1="113.7" x2="152.6" y2="113.7">
				<stop offset="0" stop-color="#5778ff"/>
				<stop offset=".2" stop-color="#5c7dff"/>
				<stop offset=".4" stop-color="#6a8aff"/>
				<stop offset=".6" stop-color="#82a0ff"/>
				<stop offset=".8" stop-color="#a3beff"/>
				<stop offset="1" stop-color="#bcd5ff"/>
			</linearGradient>
			<path d="M152.6 114.5c0 .9-.6 1.3-1.4.8a3 3 0 0 1-1.4-2.4c0-.9.6-1.3 1.4-.8a3 3 0 0 1 1.4 2.4z" fill="url(#w)"/>
			<path d="M152 114.1c0 .5-.4.7-.8.5-.4-.3-.8-.9-.8-1.4 0-.5.4-.7.8-.5.5.3.8.9.8 1.4z" fill="#3f38fc"/>
		</g>
		<g>
			<linearGradient id="x" gradientUnits="userSpaceOnUse" x1="120.7" y1="95.2" x2="124.1" y2="95.2">
				<stop offset="0" stop-color="#c0d6ff"/>
				<stop offset=".3" stop-color="#c5dbff"/>
				<stop offset=".6" stop-color="#d3e9ff"/>
				<stop offset="1" stop-color="#e9ffff"/>
			</linearGradient>
			<path d="M124.1 95.8c0-.9-.6-2-1.4-2.4-.4-.2-.7-.2-1-.1l-1 .6h.6v.3c0 .9.6 2 1.4 2.4l.3.1-.3.5 1-.6c.3-.1.4-.4.4-.8z" fill="url(#x)"/>
			<linearGradient id="y" gradientUnits="userSpaceOnUse" x1="120.3" y1="95.6" x2="123.1" y2="95.6">
				<stop offset="0" stop-color="#5778ff"/>
				<stop offset=".2" stop-color="#5c7dff"/>
				<stop offset=".4" stop-color="#6a8aff"/>
				<stop offset=".6" stop-color="#82a0ff"/>
				<stop offset=".8" stop-color="#a3beff"/>
				<stop offset="1" stop-color="#bcd5ff"/>
			</linearGradient>
			<path d="M123.1 96.4c0 .9-.6 1.3-1.4.8a3 3 0 0 1-1.4-2.4c0-.9.6-1.3 1.4-.8a3 3 0 0 1 1.4 2.4z" fill="url(#y)"/>
			<path d="M122.5 96c0 .5-.4.7-.8.5-.4-.3-.8-.9-.8-1.4 0-.5.4-.7.8-.5.5.3.8.9.8 1.4z" fill="#3f38fc"/>
		</g>
	</g>
	<g>
		<path d="M112.2 235l-41.8-24.1c-.9-.5-.8-1.4.3-2l12.3-7.1 45.1 26-12.3 7.1c-1.1.5-2.7.6-3.6.1z" opacity=".5" fill="#242993"/>
		<linearGradient id="z" gradientUnits="userSpaceOnUse" x1="152.4" y1="177.5" x2="82.3" y2="233.7">
			<stop offset="0" stop-color="#bcd5ff"/>
			<stop offset=".2" stop-color="#a3beff"/>
			<stop offset=".4" stop-color="#82a0ff"/>
			<stop offset=".6" stop-color="#6a8aff"/>
			<stop offset=".8" stop-color="#5c7dff"/>
			<stop offset="1" stop-color="#5778ff"/>
		</linearGradient>
		<path d="M171.7 202.1v-8.3h-13.6L128 176.4c-.7-.4-2-.4-2.9.1l-30 17.3H81.6v8.4c0 .3.2.5.5.7l43.2 24.9c.7.4 2 .4 2.9-.1L171 203c.4-.3.6-.6.7-.9z" fill="url(#z)"/>
		<linearGradient id="A" gradientUnits="userSpaceOnUse" x1="-71.5" y1="484.3" x2="-135.3" y2="535.5" gradientTransform="rotate(30 448 1303.8) skewX(-30)">
			<stop offset="0" stop-color="#c0d6ff"/>
			<stop offset=".3" stop-color="#c5dbff"/>
			<stop offset=".6" stop-color="#d3e9ff"/>
			<stop offset="1" stop-color="#e9ffff"/>
		</linearGradient>
		<path d="M125.3 219.5l-43.2-24.9c-.7-.4-.6-1.2.2-1.7l42.8-24.7c.9-.5 2.1-.5 2.9-.1l43.2 24.9c.7.4.6 1.2-.2 1.7l-42.8 24.7c-.9.5-2.2.5-2.9.1z" fill="url(#A)"/>
		<linearGradient id="B" gradientUnits="userSpaceOnUse" x1="-71.5" y1="484.3" x2="-135.3" y2="535.5" gradientTransform="rotate(30 448 1303.8) skewX(-30)">
			<stop offset="0" stop-color="#c0d6ff"/>
			<stop offset=".3" stop-color="#c5dbff"/>
			<stop offset=".6" stop-color="#d3e9ff"/>
			<stop offset="1" stop-color="#e9ffff"/>
		</linearGradient>
		<path d="M125.3 219.5l-43.2-24.9c-.7-.4-.6-1.2.2-1.7l42.8-24.7c.9-.5 2.1-.5 2.9-.1l43.2 24.9c.7.4.6 1.2-.2 1.7l-42.8 24.7c-.9.5-2.2.5-2.9.1z" fill="url(#B)"/>
		<path d="M125.5 216.6l-38.3-22.1c-.7-.4-.6-1 .2-1.5l37.9-21.9c.8-.4 1.9-.5 2.6-.1l38.3 22.1c.7.4.6 1-.2 1.5l-38 21.9c-.7.4-1.9.4-2.5.1z" fill="#242993"/>
		<path d="M125.6 214.7l-35.2-20.3c-.6-.3-.5-1 .2-1.4l34.8-20.1c.7-.4 1.7-.4 2.3-.1l35.2 20.3c.6.3.5 1-.2 1.4l-34.8 20.1c-.7.4-1.7.5-2.3.1z" fill="#4553c7"/>
		<g fill="#42ffff">
			<path d="M125.8 192.4l-4.1-2.3 2.3-1.3 4.1 2.4zM133.5 192.1l-4.1 2.4-2.3-1.3 4.1-2.4zM124.9 193l-2.2 1.3-2.3-1.3 2.3-1.3zM132.7 197.5l-2.3 1.3-6.5-3.8 2.3-1.3z"/>
		</g>
		<path d="M171.7 182.6l-18.4.1-25.3-14.6c-.7-.4-2-.4-2.9.1L99.4 183l-17.8.1v10.8c0 .2.2.4.5.6l43.2 24.9c.7.4 2 .4 2.9-.1l42.8-24.7c.4-.2.6-.5.7-.8v-11.2z" opacity=".4" fill="#42ffff"/>
		<g>
			<linearGradient id="C" gradientUnits="userSpaceOnUse" x1="152.4" y1="159" x2="82.3" y2="215.3">
				<stop offset="0" stop-color="#bcd5ff"/>
				<stop offset=".2" stop-color="#a3beff"/>
				<stop offset=".4" stop-color="#82a0ff"/>
				<stop offset=".6" stop-color="#6a8aff"/>
				<stop offset=".8" stop-color="#5c7dff"/>
				<stop offset="1" stop-color="#5778ff"/>
			</linearGradient>
			<path d="M171.7 183.6v-8.3h-13.6L128 157.9c-.7-.4-2-.4-2.9.1l-30 17.3H81.6v8.4c0 .3.2.5.5.7l43.2 24.9c.7.4 2 .4 2.9-.1l42.8-24.7c.4-.2.6-.5.7-.9z" fill="url(#C)"/>
			<linearGradient id="D" gradientUnits="userSpaceOnUse" x1="-90" y1="468.3" x2="-153.8" y2="519.5" gradientTransform="rotate(30 448 1303.8) skewX(-30)">
				<stop offset="0" stop-color="#c0d6ff"/>
				<stop offset=".3" stop-color="#c5dbff"/>
				<stop offset=".6" stop-color="#d3e9ff"/>
				<stop offset="1" stop-color="#e9ffff"/>
			</linearGradient>
			<path d="M125.3 201l-43.2-24.9c-.7-.4-.6-1.2.2-1.7l42.8-24.7c.9-.5 2.1-.5 2.9-.1l43.2 24.9c.7.4.6 1.2-.2 1.7l-42.8 24.7c-.9.5-2.2.5-2.9.1z" fill="url(#D)"/>
			<path d="M125.5 198.1L87.2 176c-.7-.4-.6-1 .2-1.5l37.9-21.9c.8-.4 1.9-.5 2.6-.1l38.3 22.1c.7.4.6 1-.2 1.5L128 198c-.7.4-1.9.5-2.5.1z" fill="#242993"/>
			<path d="M125.6 196.2l-35.2-20.3c-.6-.3-.5-1 .2-1.4l34.8-20.1c.7-.4 1.7-.4 2.3-.1l35.2 20.3c.6.3.5 1-.2 1.4l-34.8 20.1c-.7.5-1.7.5-2.3.1z" fill="#4553c7"/>
			<g fill="#42ffff">
				<path d="M125.8 174l-4.1-2.4 2.3-1.3 4.1 2.4zM133.5 173.6l-4.1 2.4-2.3-1.3 4.1-2.3zM124.9 174.5l-2.2 1.3-2.3-1.3 2.3-1.3zM132.7 179l-2.3 1.3-6.5-3.7 2.3-1.3z"/>
			</g>
		</g>
	</g>
	<g>
		<linearGradient id="E" gradientUnits="userSpaceOnUse" y1="138.6" x2="73.5" y2="138.6">
			<stop offset="0" stop-color="#42ffff"/>
			<stop offset=".2" stop-color="#43faff"/>
			<stop offset=".3" stop-color="#45ecff"/>
			<stop offset=".5" stop-color="#49d4ff"/>
			<stop offset=".7" stop-color="#4eb3ff"/>
			<stop offset=".9" stop-color="#5489ff"/>
			<stop offset="1" stop-color="#5778ff"/>
		</linearGradient>
		<path d="M36.7 160.3c-9.7 0-18.9-2.2-25.8-6.2-7.1-4.1-11-9.6-11-15.5s3.9-11.4 11-15.5a57 57 0 0 1 51.5 0c7.1 4.1 11 9.6 11 15.5s-3.9 11.4-11 15.5c-6.8 4-15.9 6.2-25.7 6.2zm0-42c-9.1 0-18.2 2-25.1 6-6.6 3.8-10.3 8.9-10.3 14.3s3.7 10.5 10.3 14.3c6.7 3.9 15.6 6 25.1 6 9.5 0 18.4-2.1 25.1-6 6.6-3.8 10.3-8.9 10.3-14.3s-3.7-10.5-10.3-14.3c-6.9-4-16-6-25.1-6z" fill="url(#E)"/>
		<path d="M55.7 149.6c-10.5 6-27.4 6-37.9 0s-10.5-15.8 0-21.9c10.5-6 27.4-6 37.9 0s10.5 15.8 0 21.9z" fill="#242993" opacity=".7"/>
		<linearGradient id="F" gradientUnits="userSpaceOnUse" x1="3.9" y1="127" x2="69.6" y2="127">
			<stop offset="0" stop-color="#5778ff"/>
			<stop offset=".2" stop-color="#5c7dff"/>
			<stop offset=".4" stop-color="#6a8aff"/>
			<stop offset=".6" stop-color="#82a0ff"/>
			<stop offset=".8" stop-color="#a3beff"/>
			<stop offset="1" stop-color="#bcd5ff"/>
		</linearGradient>
		<path d="M69.6 127v-7.3h-2.5a23 23 0 0 0-7.1-6.1 51.3 51.3 0 0 0-46.4 0 23 23 0 0 0-7.1 6.1H3.9v7.3c0 4.9 3.2 9.7 9.6 13.4a51.3 51.3 0 0 0 46.4 0c6.5-3.7 9.7-8.6 9.7-13.4z" fill="url(#F)"/>
		<path d="M60 133.1c-12.8 7.4-33.6 7.4-46.4 0s-12.8-19.4 0-26.8a51.3 51.3 0 0 1 46.4 0c12.8 7.4 12.8 19.4 0 26.8z" fill="#bcd5ff"/>
		<path d="M67.1 119.4v-9.9h-2.3a21 21 0 0 0-6.6-5.7 47.7 47.7 0 0 0-42.9 0 21 21 0 0 0-6.6 5.7H6.4v9.9c0 4.5 3 9 8.9 12.4 11.8 6.8 31 6.8 42.9 0 5.9-3.4 8.9-7.9 8.9-12.4z" fill="#242993"/>
		<path d="M67.1 117v-9.9h-2.3a21 21 0 0 0-6.6-5.7 47.7 47.7 0 0 0-42.9 0 21 21 0 0 0-6.6 5.7H6.4v9.9c0 4.5 3 9 8.9 12.4 11.8 6.8 31 6.8 42.9 0 5.9-3.4 8.9-7.9 8.9-12.4z" fill="#4553c7" opacity=".5"/>
		<path d="M58.2 121.8a47.7 47.7 0 0 1-42.9 0C3.5 115 3.5 103.9 15.3 97c11.8-6.8 31-6.8 42.9 0 11.8 6.9 11.8 18 0 24.8z" fill="#bcd5ff"/>
		<path d="M57.6 122.4a37.4 37.4 0 0 1-17.9 12.1c6.7-.4 13.3-2.1 18.4-5 5.9-3.4 8.9-7.9 8.9-12.4v-3c-3 1.7-6.3 4.3-9.4 8.3z" fill="#5368d8" opacity=".5"/>
		<linearGradient id="G" gradientUnits="userSpaceOnUse" x1="3.9" y1="109.3" x2="69.6" y2="109.3">
			<stop offset="0" stop-color="#5778ff"/>
			<stop offset=".2" stop-color="#5c7dff"/>
			<stop offset=".4" stop-color="#6a8aff"/>
			<stop offset=".6" stop-color="#82a0ff"/>
			<stop offset=".8" stop-color="#a3beff"/>
			<stop offset="1" stop-color="#bcd5ff"/>
		</linearGradient>
		<path d="M69.6 109.3V102h-2.5a23 23 0 0 0-7.1-6.1 51.3 51.3 0 0 0-46.4 0 23 23 0 0 0-7.1 6.1H3.9v7.3c0 4.9 3.2 9.7 9.6 13.4a51.3 51.3 0 0 0 46.4 0c6.5-3.7 9.7-8.5 9.7-13.4z" fill="url(#G)"/>
		<path d="M60 115.4c-12.8 7.4-33.6 7.4-46.4 0S.7 96 13.5 88.6a51.3 51.3 0 0 1 46.4 0c12.9 7.4 12.9 19.4.1 26.8z" fill="#bcd5ff"/>
		<path d="M67.1 101.4v-9.9h-2.3a21 21 0 0 0-6.6-5.7 47.7 47.7 0 0 0-42.9 0 21 21 0 0 0-6.6 5.7H6.4v9.9c0 4.5 3 9 8.9 12.4 11.8 6.8 31 6.8 42.9 0 5.9-3.5 8.9-7.9 8.9-12.4z" fill="#242993"/>
		<path d="M67.1 99.1v-9.9h-2.3a21 21 0 0 0-6.6-5.7 47.7 47.7 0 0 0-42.9 0 21 21 0 0 0-6.6 5.7H6.4v9.9c0 4.5 3 9 8.9 12.4 11.8 6.8 31 6.8 42.9 0 5.9-3.4 8.9-7.9 8.9-12.4z" fill="#4553c7" opacity=".5"/>
		<path d="M58.2 103.8a47.7 47.7 0 0 1-42.9 0C3.5 97 3.5 85.9 15.3 79.1c11.8-6.8 31-6.8 42.9 0C70 85.9 70 97 58.2 103.8z" fill="#bcd5ff"/>
		<g>
			<path d="M57.6 103.4a38.4 38.4 0 0 1-21.9 13.2c8.1.2 16.3-1.5 22.5-5.1 5.9-3.4 8.9-7.9 8.9-12.4v-4a30.7 30.7 0 0 0-9.5 8.3z" fill="#5368d8" opacity=".5"/>
			<linearGradient id="H" gradientUnits="userSpaceOnUse" x1="3.9" y1="91.3" x2="69.6" y2="91.3">
				<stop offset="0" stop-color="#5778ff"/>
				<stop offset=".2" stop-color="#5c7dff"/>
				<stop offset=".4" stop-color="#6a8aff"/>
				<stop offset=".6" stop-color="#82a0ff"/>
				<stop offset=".8" stop-color="#a3beff"/>
				<stop offset="1" stop-color="#bcd5ff"/>
			</linearGradient>
			<path d="M69.6 91.3V84h-2.5a23 23 0 0 0-7.1-6.1 51.3 51.3 0 0 0-46.4 0A22.3 22.3 0 0 0 6.4 84H3.9v7.3c0 4.9 3.2 9.7 9.6 13.4a51.3 51.3 0 0 0 46.4 0c6.5-3.7 9.7-8.6 9.7-13.4z" fill="url(#H)"/>
			<path d="M60 97.4c-12.8 7.4-33.6 7.4-46.4 0S.7 78 13.5 70.6a51.3 51.3 0 0 1 46.4 0C72.8 78 72.8 90 60 97.4z" fill="#bcd5ff"/>
		</g>
		<g>
			<path d="M67.1 83.4v-9.9h-2.3a21 21 0 0 0-6.6-5.7 47.7 47.7 0 0 0-42.9 0 21 21 0 0 0-6.6 5.7H6.4v9.9c0 4.5 3 9 8.9 12.4 11.8 6.8 31 6.8 42.9 0 5.9-3.5 8.9-8 8.9-12.4z" fill="#242993"/>
			<path d="M67.1 80.6v-9.9h-2.3a21 21 0 0 0-6.6-5.7 47.7 47.7 0 0 0-42.9 0 21 21 0 0 0-6.6 5.7H6.4v9.9c0 4.5 3 9 8.9 12.4 11.8 6.8 31 6.8 42.9 0 5.9-3.5 8.9-7.9 8.9-12.4z" fill="#4553c7" opacity=".5"/>
			<path d="M58.2 85.8a47.7 47.7 0 0 1-42.9 0C3.5 79 3.5 67.9 15.3 61c11.8-6.8 31-6.8 42.9 0 11.8 6.9 11.8 18 0 24.8z" fill="#bcd5ff"/>
		</g>
		<g>
			<linearGradient id="I" gradientUnits="userSpaceOnUse" x1="3.9" y1="73.3" x2="69.6" y2="73.3">
				<stop offset="0" stop-color="#5778ff"/>
				<stop offset=".2" stop-color="#5c7dff"/>
				<stop offset=".4" stop-color="#6a8aff"/>
				<stop offset=".6" stop-color="#82a0ff"/>
				<stop offset=".8" stop-color="#a3beff"/>
				<stop offset="1" stop-color="#bcd5ff"/>
			</linearGradient>
			<path d="M69.6 73.3V66h-2.5a23 23 0 0 0-7.1-6.1 51.3 51.3 0 0 0-46.4 0A21.1 21.1 0 0 0 6.4 66H3.9v7.3c0 4.9 3.2 9.7 9.6 13.4a51.3 51.3 0 0 0 46.4 0c6.5-3.7 9.7-8.6 9.7-13.4z" fill="url(#I)"/>
			<path d="M60 79.4a51.3 51.3 0 0 1-46.4 0C.7 72 .7 60 13.5 52.6c12.8-7.4 33.6-7.4 46.4 0S72.8 72 60 79.4z" fill="#bcd5ff"/>
			<path d="M60 79.4a51.3 51.3 0 0 1-46.4 0C.7 72 .7 60 13.5 52.6c12.8-7.4 33.6-7.4 46.4 0S72.8 72 60 79.4z" fill="#bcd5ff"/>
		</g>
		<g>
			<path d="M57.6 84.4A39 39 0 0 1 33.9 98c8.7.5 17.6-1.2 24.3-5 5.9-3.4 8.9-7.9 8.9-12.4v-4.4a30.2 30.2 0 0 0-9.5 8.2z" fill="#5368d8" opacity=".5"/>
			<linearGradient id="J" gradientUnits="userSpaceOnUse" x1="3.9" y1="73.3" x2="69.6" y2="73.3">
				<stop offset="0" stop-color="#5778ff"/>
				<stop offset=".2" stop-color="#5c7dff"/>
				<stop offset=".4" stop-color="#6a8aff"/>
				<stop offset=".6" stop-color="#82a0ff"/>
				<stop offset=".8" stop-color="#a3beff"/>
				<stop offset="1" stop-color="#bcd5ff"/>
			</linearGradient>
			<path d="M69.6 73.3V66h-2.5a23 23 0 0 0-7.1-6.1 51.3 51.3 0 0 0-46.4 0A21.1 21.1 0 0 0 6.4 66H3.9v7.3c0 4.9 3.2 9.7 9.6 13.4a51.3 51.3 0 0 0 46.4 0c6.5-3.7 9.7-8.6 9.7-13.4z" fill="url(#J)"/>
			<path d="M60 79.4a51.3 51.3 0 0 1-46.4 0C.7 72 .7 60 13.5 52.6c12.8-7.4 33.6-7.4 46.4 0S72.8 72 60 79.4z" fill="#bcd5ff"/>
			<path d="M60 79.4a51.3 51.3 0 0 1-46.4 0C.7 72 .7 60 13.5 52.6c12.8-7.4 33.6-7.4 46.4 0S72.8 72 60 79.4z" fill="#bcd5ff"/>
			<path d="M60.1 78.8a51.3 51.3 0 0 1-46.4 0C5.9 74.3 2.8 68 4.6 62.1c-2.1 6 .8 12.6 8.9 17.2a51.3 51.3 0 0 0 46.4 0c5-2.9 8-6.4 9.1-10.1a18.3 18.3 0 0 1-8.9 9.6z" fill="#fff"/>
			<path d="M60.1 96.8a51.3 51.3 0 0 1-46.4 0C5.9 92.3 2.8 86 4.6 80.2c-2.1 6 .8 12.6 8.9 17.2a51.3 51.3 0 0 0 46.4 0c5-2.9 8-6.4 9.1-10.1a18.2 18.2 0 0 1-8.9 9.5z" fill="#fff"/>
			<path d="M60.1 114.9a51.3 51.3 0 0 1-46.4 0c-7.9-4.5-10.9-10.8-9.1-16.7-2.1 6 .8 12.6 8.9 17.2a51.3 51.3 0 0 0 46.4 0c5-2.9 8-6.4 9.1-10.1a18.7 18.7 0 0 1-8.9 9.6z" fill="#fff"/>
			<path d="M60.1 132.9a51.3 51.3 0 0 1-46.4 0c-7.9-4.5-10.9-10.8-9.1-16.7-2.1 6 .8 12.6 8.9 17.2a51.3 51.3 0 0 0 46.4 0c5-2.9 8-6.4 9.1-10.1a18.3 18.3 0 0 1-8.9 9.6z" fill="#fff"/>
		</g>
		<defs>
			<filter id="K" filterUnits="userSpaceOnUse" x="3.9" y="56.4" width="32.8" height="17.6">
				<feFlood result="back" flood-color="#fff" flood-opacity="1"/>
				<feBlend in="SourceGraphic" in2="back"/>
			</filter>
		</defs>
		<mask maskUnits="userSpaceOnUse" x="3.9" y="56.4" width="32.8" height="17.6" id="M">
			<g filter="url(#K)">
				<defs>
					<filter id="L" filterUnits="userSpaceOnUse" x="3.9" y="56.4" width="32.8" height="17.6">
						<feFlood result="back" flood-color="#fff" flood-opacity="1"/>
						<feBlend in="SourceGraphic" in2="back"/>
					</filter>
				</defs>
				<linearGradient id="N" gradientUnits="userSpaceOnUse" x1="3.9" y1="65.1" x2="36.7" y2="65.1">
					<stop offset="0"/>
					<stop offset="0" stop-color="#2f2f2f"/>
					<stop offset=".1" stop-color="#5a5a5a"/>
					<stop offset=".2" stop-color="#828282"/>
					<stop offset=".2" stop-color="#a4a4a4"/>
					<stop offset=".3" stop-color="silver"/>
					<stop offset=".4" stop-color="#d7d7d7"/>
					<stop offset=".4" stop-color="#e9e9e9"/>
					<stop offset=".5" stop-color="#f6f6f6"/>
					<stop offset=".7" stop-color="#fdfdfd"/>
					<stop offset="1" stop-color="#fff"/>
				</linearGradient>
				<path d="M6.9 73.9h29.8V56.4H8.5c-5.5 5.3-6 11.9-1.6 17.5z" mask="url(#M)" fill="url(#N)"/>
			</g>
		</mask>
		<linearGradient id="O" gradientUnits="userSpaceOnUse" x1="3.9" y1="65.1" x2="36.7" y2="65.1">
			<stop offset="0" stop-color="#e9ffff"/>
			<stop offset="0" stop-color="#d3ebff"/>
			<stop offset=".1" stop-color="#b2ccff"/>
			<stop offset=".2" stop-color="#96b2ff"/>
			<stop offset=".3" stop-color="#7f9dff"/>
			<stop offset=".4" stop-color="#6d8cff"/>
			<stop offset=".5" stop-color="#6081ff"/>
			<stop offset=".6" stop-color="#597aff"/>
			<stop offset="1" stop-color="#5778ff"/>
		</linearGradient>
		<path d="M6.9 73.9h29.8V56.4H8.5c-5.5 5.3-6 11.9-1.6 17.5z" opacity=".8" fill="url(#O)"/>
		<g>
			<linearGradient id="P" gradientUnits="userSpaceOnUse" x1="19.9" y1="64.2" x2="53.6" y2="64.2">
				<stop offset="0" stop-color="#5778ff"/>
				<stop offset=".2" stop-color="#5c7dff"/>
				<stop offset=".4" stop-color="#6a8aff"/>
				<stop offset=".6" stop-color="#82a0ff"/>
				<stop offset=".8" stop-color="#a3beff"/>
				<stop offset="1" stop-color="#bcd5ff"/>
			</linearGradient>
			<path d="M53.6 64.2v-3.7h-1.3c-.8-1.1-2-2.2-3.6-3.1a26.3 26.3 0 0 0-23.8 0c-1.6.9-2.8 2-3.6 3.1H20v3.7c0 2.5 1.6 5 4.9 6.9a26.3 26.3 0 0 0 23.8 0c3.3-1.9 4.9-4.4 4.9-6.9z" fill="url(#P)"/>
			<path d="M48.7 67.3a26.3 26.3 0 0 1-23.8 0c-6.6-3.8-6.6-10 0-13.8s17.3-3.8 23.8 0c6.5 3.9 6.5 10 0 13.8z" fill="#bcd5ff"/>
			<linearGradient id="Q" gradientUnits="userSpaceOnUse" x1="19.9" y1="60.5" x2="53.6" y2="60.5">
				<stop offset="0" stop-color="#c0d6ff"/>
				<stop offset=".3" stop-color="#c5dbff"/>
				<stop offset=".6" stop-color="#d3e9ff"/>
				<stop offset="1" stop-color="#e9ffff"/>
			</linearGradient>
			<path d="M48.7 67.3a26.3 26.3 0 0 1-23.8 0c-6.6-3.8-6.6-10 0-13.8s17.3-3.8 23.8 0c6.5 3.9 6.5 10 0 13.8z" fill="url(#Q)"/>
			<path d="M44.8 65.1a17.4 17.4 0 0 1-16 0 7.8 7.8 0 0 1-2.9-2.8c-1.1-2.2 1.7-3.8 4.8-5.6 4.4-2.6 7.6-3.2 12-.6 3 1.8 6.1 4 5 6.2-.6 1-1.5 2-2.9 2.8z" fill="#242993"/>
			<linearGradient id="R" gradientUnits="userSpaceOnUse" x1="25.4" y1="58.1" x2="48.1" y2="58.1">
				<stop offset="0" stop-color="#bcd5ff"/>
				<stop offset=".2" stop-color="#a3beff"/>
				<stop offset=".4" stop-color="#82a0ff"/>
				<stop offset=".6" stop-color="#6a8aff"/>
				<stop offset=".8" stop-color="#5c7dff"/>
				<stop offset="1" stop-color="#5778ff"/>
			</linearGradient>
			<path d="M28.7 59.6a17.4 17.4 0 0 1 16 0c1.4.8 2.3 1.8 2.9 2.8 1.1-2.2.2-4.7-2.9-6.5a17.4 17.4 0 0 0-16 0c-3 1.8-4 4.3-2.9 6.5.6-1.1 1.5-2 2.9-2.8z" fill="url(#R)"/>
		</g>
		<g>
			<path d="M55.2 93.6c-2.2.9-3.9.6-3.7-.5.2-1.2 2.1-2.8 4.3-3.7 2.2-.9 3.9-.6 3.7.5-.1 1.2-2.1 2.9-4.3 3.7zM55.2 111.9c-2.2.9-3.9.6-3.7-.5.2-1.2 2.1-2.8 4.3-3.7 2.2-.9 3.9-.6 3.7.5-.1 1.2-2.1 2.8-4.3 3.7zM55.3 130.3c-2.2.9-3.9.6-3.7-.5.2-1.2 2.1-2.8 4.3-3.7 2.2-.9 3.9-.6 3.7.5-.1 1.2-2 2.9-4.3 3.7z" fill="#677eea" opacity=".5"/>
			<ellipse transform="rotate(-35.5 61 88.3)" cx="61" cy="88.3" rx="1.2" ry=".9" fill="#677eea" opacity=".5"/>
			<ellipse transform="rotate(-35.5 61 106.7)" cx="61" cy="106.7" rx="1.2" ry=".9" fill="#677eea" opacity=".5"/>
			<ellipse transform="rotate(-35.5 61 125)" cx="61" cy="125" rx="1.2" ry=".9" fill="#677eea" opacity=".5"/>
		</g>
	</g>
</svg>
